<svg width="752" height="129" viewBox="0 0 752 129" fill="none" xmlns="http://www.w3.org/2000/svg">
<path d="M33.6016 0C39.4896 2.7123 46.626 7.8534 53.25 17.583C56.3059 22.2032 59.5535 27.7066 63.1533 34.6289L45.8574 43.334C44.9616 43.6967 44.418 44.5795 44.418 45.2891C44.418 46.3456 44.9616 47.0714 45.6816 47.5918L98.4492 76.5283C99.1691 76.8909 99.8894 76.8908 100.785 76.5283C101.329 76.1656 101.858 75.6449 102.05 74.7461L109.441 15.6426V15.2803C109.441 14.5707 109.073 13.8607 108.354 13.498C107.634 12.962 106.737 12.7888 106.018 13.1514L89.8096 21.3203C87.1056 17.4095 79.9854 7.90037 69.8574 0H104C117.255 0 128 10.7452 128 24V104C128 117.255 117.255 128 104 128H94.3984C88.5104 125.288 81.374 120.147 74.75 110.417C71.6941 105.797 68.4465 100.293 64.8467 93.3711L82.1426 84.666C83.0384 84.3033 83.582 83.4205 83.582 82.7109C83.582 81.6544 83.0384 80.9286 82.3184 80.4082L29.5508 51.4717C28.8309 51.1091 28.1106 51.1092 27.2148 51.4717C26.6708 51.8344 26.1422 52.3551 25.9502 53.2539L18.5586 112.357V112.72C18.5586 113.429 18.9265 114.139 19.6465 114.502C20.3664 115.038 21.2625 115.211 21.9824 114.849L38.1904 106.68C40.8944 110.59 48.0146 120.1 58.1426 128H24C10.7452 128 0 117.255 0 104V24C0 10.7452 10.7452 0 24 0H33.6016Z" fill="white"/>
<path d="M204.8 111.036C197.632 111.036 191.872 109.415 187.52 106.172C183.168 102.844 180.992 98.236 180.992 92.348C180.992 86.46 182.827 81.852 186.496 78.524C190.165 75.196 195.755 72.8067 203.264 71.356L225.92 66.876C225.92 62.012 224.811 58.3853 222.592 55.996C220.373 53.5213 217.088 52.284 212.736 52.284C208.811 52.284 205.696 53.2227 203.392 55.1C201.173 56.892 199.637 59.4947 198.784 62.908L182.144 62.14C183.509 54.8867 186.837 49.34 192.128 45.5C197.419 41.5747 204.288 39.612 212.736 39.612C222.464 39.612 229.803 42.0867 234.752 47.036C239.787 51.9 242.304 58.8973 242.304 68.028V92.86C242.304 94.652 242.603 95.8893 243.2 96.572C243.883 97.2547 244.864 97.596 246.144 97.596H248.32V109.5C247.808 109.671 246.955 109.799 245.76 109.884C244.651 109.969 243.499 110.012 242.304 110.012C239.488 110.012 236.971 109.585 234.752 108.732C232.533 107.793 230.827 106.215 229.632 103.996C228.437 101.692 227.84 98.5773 227.84 94.652L229.248 95.676C228.565 98.6627 227.072 101.351 224.768 103.74C222.549 106.044 219.733 107.836 216.32 109.116C212.907 110.396 209.067 111.036 204.8 111.036ZM208.128 99.132C211.797 99.132 214.955 98.4067 217.6 96.956C220.245 95.5053 222.293 93.5 223.744 90.94C225.195 88.38 225.92 85.3507 225.92 81.852V78.012L208.256 81.596C204.587 82.364 201.941 83.516 200.32 85.052C198.784 86.5027 198.016 88.4227 198.016 90.812C198.016 93.4573 198.869 95.5053 200.576 96.956C202.368 98.4067 204.885 99.132 208.128 99.132ZM256.4 109.5V41.148H271.248L271.888 60.348L269.968 59.58C270.651 54.8013 272.059 50.9613 274.192 48.06C276.325 45.1587 278.928 43.0253 282 41.66C285.072 40.2947 288.443 39.612 292.112 39.612C297.147 39.612 301.371 40.7213 304.784 42.94C308.283 45.1587 310.928 48.2307 312.72 52.156C314.512 55.996 315.408 60.476 315.408 65.596V109.5H299.024V70.844C299.024 67.004 298.64 63.7613 297.872 61.116C297.104 58.4707 295.824 56.4653 294.032 55.1C292.325 53.6493 290.021 52.924 287.12 52.924C282.768 52.924 279.269 54.46 276.624 57.532C274.064 60.604 272.784 65.0413 272.784 70.844V109.5H256.4ZM331.454 128.7V116.028H340.158C342.377 116.028 343.998 115.687 345.022 115.004C346.131 114.321 346.985 113.169 347.582 111.548L349.502 106.812H344.766L320.318 41.148H337.342L354.494 91.452L370.878 41.148H387.902L361.15 116.668C359.614 120.935 357.438 124.007 354.622 125.884C351.891 127.761 348.051 128.7 343.102 128.7H331.454ZM421.181 111.036C414.44 111.036 408.765 110.055 404.157 108.092C399.634 106.129 396.136 103.399 393.661 99.9C391.186 96.4013 389.778 92.4333 389.437 87.996L406.205 87.228C406.802 90.812 408.296 93.5853 410.685 95.548C413.074 97.5107 416.616 98.492 421.309 98.492C425.149 98.492 428.136 97.8947 430.269 96.7C432.488 95.42 433.597 93.4573 433.597 90.812C433.597 89.276 433.213 87.996 432.445 86.972C431.677 85.948 430.226 85.052 428.093 84.284C425.96 83.516 422.802 82.748 418.621 81.98C411.624 80.7853 406.12 79.3347 402.109 77.628C398.098 75.836 395.24 73.6173 393.533 70.972C391.912 68.3267 391.101 65.0413 391.101 61.116C391.101 54.716 393.533 49.5533 398.397 45.628C403.346 41.6173 410.557 39.612 420.029 39.612C426.173 39.612 431.336 40.636 435.517 42.684C439.698 44.6467 442.941 47.3773 445.245 50.876C447.634 54.2893 449.128 58.2147 449.725 62.652L433.213 63.42C432.786 61.116 432.018 59.1107 430.909 57.404C429.8 55.6973 428.306 54.4173 426.429 53.564C424.552 52.6253 422.333 52.156 419.773 52.156C415.933 52.156 413.032 52.924 411.069 54.46C409.106 55.996 408.125 58.044 408.125 60.604C408.125 62.396 408.552 63.8893 409.405 65.084C410.344 66.2787 411.837 67.26 413.885 68.028C415.933 68.7107 418.664 69.3507 422.077 69.948C429.245 71.0573 434.877 72.508 438.973 74.3C443.154 76.0067 446.098 78.2253 447.805 80.956C449.597 83.6013 450.493 86.8013 450.493 90.556C450.493 94.908 449.256 98.62 446.781 101.692C444.392 104.764 440.978 107.111 436.541 108.732C432.189 110.268 427.069 111.036 421.181 111.036ZM460.72 128.7V41.148H476.464L476.848 55.74L475.184 54.972C476.891 49.9373 479.664 46.14 483.504 43.58C487.429 40.9347 491.995 39.612 497.2 39.612C503.685 39.612 509.061 41.2333 513.328 44.476C517.68 47.7187 520.923 52.028 523.056 57.404C525.189 62.78 526.256 68.7533 526.256 75.324C526.256 81.8947 525.147 87.868 522.928 93.244C520.795 98.62 517.552 102.929 513.2 106.172C508.933 109.415 503.557 111.036 497.072 111.036C493.659 111.036 490.459 110.439 487.472 109.244C484.571 108.049 482.053 106.343 479.92 104.124C477.872 101.905 476.421 99.3027 475.568 96.316L477.104 95.036V128.7H460.72ZM493.232 97.724C498.181 97.724 502.064 95.7613 504.88 91.836C507.781 87.8253 509.232 82.3213 509.232 75.324C509.232 68.3267 507.781 62.8653 504.88 58.94C502.064 54.9293 498.181 52.924 493.232 52.924C489.904 52.924 487.045 53.7773 484.656 55.484C482.267 57.1053 480.389 59.58 479.024 62.908C477.744 66.236 477.104 70.3747 477.104 75.324C477.104 80.2733 477.744 84.412 479.024 87.74C480.304 91.068 482.139 93.5853 484.528 95.292C487.003 96.9133 489.904 97.724 493.232 97.724ZM565.978 111.036C559.151 111.036 553.221 109.585 548.186 106.684C543.151 103.697 539.269 99.516 536.538 94.14C533.807 88.764 532.442 82.492 532.442 75.324C532.442 68.156 533.807 61.9267 536.538 56.636C539.269 51.26 543.109 47.0787 548.058 44.092C553.093 41.1053 558.938 39.612 565.594 39.612C572.079 39.612 577.754 41.0627 582.618 43.964C587.567 46.8653 591.365 51.0467 594.01 56.508C596.655 61.9693 597.978 68.54 597.978 76.22V79.932H549.466C549.807 85.9053 551.429 90.428 554.33 93.5C557.317 96.4867 561.242 97.98 566.106 97.98C569.775 97.98 572.805 97.1693 575.194 95.548C577.669 93.8413 579.375 91.4947 580.314 88.508L597.082 89.532C595.205 96.188 591.493 101.436 585.946 105.276C580.485 109.116 573.829 111.036 565.978 111.036ZM549.466 68.924H581.082C580.741 63.3773 579.162 59.2813 576.346 56.636C573.53 53.9053 569.946 52.54 565.594 52.54C561.242 52.54 557.615 53.948 554.714 56.764C551.898 59.58 550.149 63.6333 549.466 68.924ZM608.225 109.5V41.148H623.073L623.713 60.348L621.793 59.58C622.476 54.8013 623.884 50.9613 626.017 48.06C628.15 45.1587 630.753 43.0253 633.825 41.66C636.897 40.2947 640.268 39.612 643.937 39.612C648.972 39.612 653.196 40.7213 656.609 42.94C660.108 45.1587 662.753 48.2307 664.545 52.156C666.337 55.996 667.233 60.476 667.233 65.596V109.5H650.849V70.844C650.849 67.004 650.465 63.7613 649.697 61.116C648.929 58.4707 647.649 56.4653 645.857 55.1C644.15 53.6493 641.846 52.924 638.945 52.924C634.593 52.924 631.094 54.46 628.449 57.532C625.889 60.604 624.609 65.0413 624.609 70.844V109.5H608.225ZM705.235 111.036C699.432 111.036 694.398 109.585 690.131 106.684C685.95 103.783 682.707 99.644 680.403 94.268C678.099 88.892 676.947 82.5773 676.947 75.324C676.947 68.0707 678.099 61.756 680.403 56.38C682.707 51.004 685.992 46.8653 690.259 43.964C694.526 41.0627 699.518 39.612 705.235 39.612C710.014 39.612 714.195 40.5933 717.779 42.556C721.448 44.5187 724.222 47.292 726.099 50.876V18.62H742.483V109.5H726.867L726.483 99.388C724.606 103.057 721.79 105.916 718.035 107.964C714.28 110.012 710.014 111.036 705.235 111.036ZM710.227 97.724C713.64 97.724 716.499 96.8707 718.803 95.164C721.192 93.4573 722.984 90.94 724.179 87.612C725.459 84.1987 726.099 80.1027 726.099 75.324C726.099 70.46 725.459 66.364 724.179 63.036C722.984 59.708 721.192 57.1907 718.803 55.484C716.499 53.7773 713.64 52.924 710.227 52.924C705.278 52.924 701.31 54.9293 698.323 58.94C695.422 62.8653 693.971 68.3267 693.971 75.324C693.971 82.1507 695.422 87.612 698.323 91.708C701.31 95.7187 705.278 97.724 710.227 97.724Z" fill="white"/>
</svg>
