<svg width="3633" height="1647" viewBox="0 0 3633 1647" fill="none" xmlns="http://www.w3.org/2000/svg">
<g clip-path="url(#clip0_172_227)">
<path d="M3143.66 368.308C3143.41 368.11 3143.15 367.912 3142.89 367.714C3123.41 352.737 3094.83 343.289 3062.98 343.289H570.017C538.171 343.289 509.592 352.737 490.105 367.714C473.662 380.346 463.689 396.917 463.689 415.06V1298.84C463.689 1316.95 473.626 1333.49 490.02 1346.12C509.508 1361.13 538.122 1370.61 570.017 1370.61H3062.98C3094.88 1370.61 3123.49 1361.13 3142.98 1346.12C3159.37 1333.49 3169.31 1316.95 3169.31 1298.84V415.06C3169.31 397.201 3159.65 380.862 3143.66 368.308ZM1379 1002.21V711.69C1379 706.563 1381.74 701.866 1386.29 698.236C1391.95 693.706 1400.43 690.829 1409.9 690.829H2223.1C2232.57 690.829 2241.05 693.706 2246.71 698.236C2247.35 698.744 2247.96 699.276 2248.52 699.826C2251.97 703.193 2254 707.28 2254 711.69V1002.21C2254 1007.3 2251.29 1011.97 2246.79 1015.6C2241.12 1020.16 2232.61 1023.06 2223.1 1023.06H1409.9C1400.39 1023.06 1391.88 1020.16 1386.21 1015.6C1381.71 1011.97 1379 1007.3 1379 1002.21Z" stroke="#444444" style="stroke:#444444;stroke:color(display-p3 0.2667 0.2667 0.2667);stroke-opacity:1;" stroke-width="2" stroke-miterlimit="10"/>
<path d="M3596.59 200.384C3570.44 180.284 3532.08 167.594 3489.33 167.594H143.666C100.916 167.594 62.5635 180.284 36.4073 200.384C14.3467 217.34 0.972656 239.57 0.972656 263.914V1449.98C0.972656 1474.29 14.3165 1496.5 36.3227 1513.45C62.4789 1533.59 100.873 1546.3 143.666 1546.3H3489.33C3532.13 1546.3 3570.52 1533.59 3596.68 1513.45C3618.68 1496.5 3632.03 1474.29 3632.03 1449.98V263.914C3632.03 239.57 3618.65 217.34 3596.59 200.384ZM1379 1002.21V711.69C1379 706.563 1381.74 701.866 1386.29 698.236C1391.95 693.706 1400.43 690.829 1409.9 690.829H2223.1C2232.57 690.829 2241.05 693.706 2246.71 698.236C2247.35 698.744 2247.96 699.276 2248.52 699.826C2251.97 703.193 2254 707.28 2254 711.69V1002.21C2254 1007.3 2251.29 1011.97 2246.79 1015.6C2241.12 1020.16 2232.61 1023.06 2223.1 1023.06H1409.9C1400.39 1023.06 1391.88 1020.16 1386.21 1015.6C1381.71 1011.97 1379 1007.3 1379 1002.21Z" stroke="#444444" style="stroke:#444444;stroke:color(display-p3 0.2667 0.2667 0.2667);stroke-opacity:1;" stroke-width="2" stroke-miterlimit="10"/>
<path d="M2891.98 461.602C2891.59 461.292 2891.2 460.99 2890.81 460.687C2874.98 448.537 2851.78 440.873 2825.93 440.873H807.072C781.218 440.873 758.021 448.537 742.189 460.687C728.809 470.953 720.69 484.426 720.69 499.179V1214.72C720.69 1229.44 728.772 1242.89 742.104 1253.14C757.937 1265.33 781.175 1273.02 807.072 1273.02H2825.93C2851.83 1273.02 2875.06 1265.33 2890.9 1253.14C2904.23 1242.89 2912.31 1229.44 2912.31 1214.72V499.179C2912.31 484.86 2904.66 471.744 2891.98 461.602ZM1379 1002.21V711.69C1379 706.563 1381.74 701.866 1386.29 698.236C1391.95 693.706 1400.43 690.829 1409.9 690.829H2223.1C2232.57 690.829 2241.05 693.706 2246.71 698.236C2247.35 698.744 2247.96 699.276 2248.52 699.826C2251.97 703.193 2254 707.28 2254 711.69V1002.21C2254 1007.3 2251.29 1011.97 2246.79 1015.6C2241.12 1020.16 2232.61 1023.06 2223.1 1023.06H1409.9C1400.39 1023.06 1391.88 1020.16 1386.21 1015.6C1381.71 1011.97 1379 1007.3 1379 1002.21Z" stroke="#444444" style="stroke:#444444;stroke:color(display-p3 0.2667 0.2667 0.2667);stroke-opacity:1;" stroke-width="2" stroke-miterlimit="10"/>
<path d="M2722 524.6C2721.54 524.216 2721.06 523.84 2720.57 523.468C2707.01 513.132 2687.19 506.613 2665.13 506.613H967.875C945.808 506.613 925.995 513.132 912.427 523.468C900.859 532.287 893.834 543.887 893.834 556.592V1157.31C893.834 1169.98 900.823 1181.55 912.343 1190.36C925.91 1200.74 945.76 1207.28 967.875 1207.28H2665.13C2687.24 1207.28 2707.09 1200.74 2720.66 1190.36C2732.18 1181.55 2739.17 1169.98 2739.17 1157.31V556.592C2739.17 544.422 2732.72 533.268 2722 524.6ZM1379 1002.21V711.69C1379 706.563 1381.74 701.866 1386.29 698.236C1391.95 693.706 1400.43 690.829 1409.9 690.829H2223.1C2232.57 690.829 2241.05 693.706 2246.71 698.236C2247.35 698.744 2247.96 699.276 2248.52 699.826C2251.97 703.193 2254 707.28 2254 711.69V1002.21C2254 1007.3 2251.29 1011.97 2246.79 1015.6C2241.12 1020.16 2232.61 1023.06 2223.1 1023.06H1409.9C1400.39 1023.06 1391.88 1020.16 1386.21 1015.6C1381.71 1011.97 1379 1007.3 1379 1002.21Z" stroke="#444444" style="stroke:#444444;stroke:color(display-p3 0.2667 0.2667 0.2667);stroke-opacity:1;" stroke-width="2" stroke-miterlimit="10"/>
<path d="M2586.03 575.005C2585.49 574.563 2584.94 574.129 2584.37 573.702C2572.63 564.806 2555.52 559.209 2536.48 559.209H1096.52C1077.48 559.209 1060.37 564.806 1048.63 573.702C1038.5 581.358 1032.35 591.461 1032.35 602.525V1111.37C1032.35 1122.41 1038.46 1132.48 1048.54 1140.13C1060.28 1149.06 1077.43 1154.69 1096.52 1154.69H2536.48C2555.57 1154.69 2572.71 1149.06 2584.46 1140.13C2594.54 1132.48 2600.65 1122.41 2600.65 1111.37V602.525C2600.65 592.077 2595.17 582.487 2586.03 575.005ZM1379 1002.21V711.69C1379 706.563 1381.74 701.866 1386.29 698.236C1391.95 693.706 1400.43 690.829 1409.9 690.829H2223.1C2232.57 690.829 2241.05 693.706 2246.71 698.236C2247.35 698.744 2247.96 699.275 2248.52 699.826C2251.97 703.192 2254 707.28 2254 711.69V1002.21C2254 1007.3 2251.29 1011.97 2246.79 1015.6C2241.12 1020.16 2232.61 1023.06 2223.1 1023.06H1409.9C1400.39 1023.06 1391.88 1020.16 1386.21 1015.6C1381.71 1011.97 1379 1007.3 1379 1002.21Z" stroke="#444444" style="stroke:#444444;stroke:color(display-p3 0.2667 0.2667 0.2667);stroke-opacity:1;" stroke-width="2" stroke-miterlimit="10"/>
<path d="M1405.93 1646.46L1506.03 1436.72L1561.63 1320.22L1599.09 1241.74L1629.06 1178.96L1651.53 1131.87L1674.01 1084.78L1688.99 1053.39L1702.56 1024.97C1703.55 1022.89 1704.05 1020.7 1704.05 1018.49L1704.07 944.895V882.293L1704.08 823.463V764.634L1704.09 702.031L1704.1 634.053V628.553C1704.1 626.342 1703.59 624.149 1702.6 622.071L1689.04 593.659L1674.06 562.265L1651.58 515.178L1629.11 468.09L1599.14 405.303L1561.69 326.822L1506.09 210.328L1405.98 0.585083" stroke="#444444" style="stroke:#444444;stroke:color(display-p3 0.2667 0.2667 0.2667);stroke-opacity:1;" stroke-width="2" stroke-miterlimit="10"/>
<path d="M907.953 1646.46L1138.74 1436.72L1266.92 1320.22L1353.28 1241.74L1422.37 1178.96L1474.18 1131.87L1525.99 1084.78L1560.53 1053.39L1589.45 1027.11C1593.21 1023.7 1595.27 1019.39 1595.27 1014.93L1595.29 944.895L1595.31 882.293L1595.33 823.463L1595.35 764.634L1595.36 702.031L1595.39 634.053V632.109C1595.39 627.655 1593.33 623.338 1589.57 619.925L1560.67 593.654L1526.12 562.261L1474.31 515.173L1422.5 468.085L1353.41 405.299L1267.05 326.818L1138.87 210.324L908.08 0.585083" stroke="#444444" style="stroke:#444444;stroke:color(display-p3 0.2667 0.2667 0.2667);stroke-opacity:1;" stroke-width="2" stroke-miterlimit="10"/>
<path d="M509.974 1646.46L837.753 1436.72L1019.81 1320.22L1142.46 1241.74L1240.58 1178.96L1314.16 1131.87L1387.75 1084.78L1436.81 1053.39L1477.26 1027.51C1482.89 1023.91 1486.14 1018.59 1486.14 1012.99L1486.17 944.895L1486.2 882.293L1486.22 823.463L1486.24 764.634L1486.27 702.031L1486.3 634.053C1486.3 628.447 1483.05 623.126 1477.42 619.524L1437 593.654L1387.93 562.261L1314.35 515.173L1240.76 468.085L1142.63 405.299L1019.99 326.818L837.928 210.324L510.155 0.585083" stroke="#444444" style="stroke:#444444;stroke:color(display-p3 0.2667 0.2667 0.2667);stroke-opacity:1;" stroke-width="2" stroke-miterlimit="10"/>
<path d="M3632.03 856.684H3169.31H2912.31H2739.17H2600.65H2496.77H2392.88H2323.62H2254H2126.42H2034.71H1964.41H1911.15H1862.35H1816.5H1770.65H1721.85H1666.36H1598.29H1506.58H1379H1309.38H1240.12H1136.23H1032.35H893.834H720.69H463.689H0.972656" stroke="#444444" style="stroke:#444444;stroke:color(display-p3 0.2667 0.2667 0.2667);stroke-opacity:1;" stroke-width="2" stroke-miterlimit="10"/>
<path d="M3631.05 1321.55L3168.34 1193.12L2911.34 1121.79L2738.19 1073.73L2599.68 1035.29L2495.79 1006.45L2391.91 977.619L2322.65 958.397L2257.15 940.215C2254.43 939.459 2251.55 939.072 2248.65 939.072H1382.41C1379.51 939.072 1376.64 939.459 1373.91 940.215L1308.41 958.397L1239.16 977.619L1135.27 1006.45L1031.38 1035.29L892.867 1073.73L719.723 1121.79L462.722 1193.12L0 1321.55" stroke="#444444" style="stroke:#444444;stroke:color(display-p3 0.2667 0.2667 0.2667);stroke-opacity:1;" stroke-width="2" stroke-miterlimit="10"/>
<path d="M-5.3624e-05 396.684L462.716 525.113L719.717 596.445L892.861 644.504L1031.37 682.946L1135.26 711.782L1239.15 740.615L1308.41 759.837L1373.91 778.019C1376.63 778.775 1379.5 779.162 1382.4 779.162L2248.64 779.162C2251.54 779.162 2254.42 778.775 2257.14 778.019L2322.64 759.838L2391.9 740.615L2495.79 711.782L2599.67 682.946L2738.19 644.504L2911.33 596.445L3168.33 525.113L3631.05 396.684" stroke="#444444" style="stroke:#444444;stroke:color(display-p3 0.2667 0.2667 0.2667);stroke-opacity:1;" stroke-width="2" stroke-miterlimit="10"/>
<path d="M3116.22 1646.46L2788.44 1436.72L2606.38 1320.22L2483.73 1241.74L2385.61 1178.96L2312.02 1131.87L2238.44 1084.78L2189.37 1053.39L2148.93 1027.51C2143.3 1023.91 2140.05 1018.59 2140.05 1012.99L2140.02 944.895L2139.99 882.293L2139.97 823.463L2139.94 764.634L2139.91 702.031L2139.89 634.053C2139.89 628.447 2143.14 623.126 2148.77 619.524L2189.19 593.654L2238.26 562.261L2311.84 515.173L2385.43 468.085L2483.56 405.299L2606.2 326.818L2788.26 210.324L3116.03 0.585083" stroke="#444444" style="stroke:#444444;stroke:color(display-p3 0.2667 0.2667 0.2667);stroke-opacity:1;" stroke-width="2" stroke-miterlimit="10"/>
<path d="M2718.33 1646.46L2487.55 1436.72L2359.36 1320.22L2273.01 1241.74L2203.92 1178.96L2152.11 1131.87L2100.3 1084.78L2065.75 1053.39L2036.83 1027.11C2033.08 1023.7 2031.02 1019.39 2031.02 1014.93L2030.99 944.895L2030.97 882.293L2030.96 823.463L2030.94 764.634L2030.92 702.031L2030.9 634.053V632.109C2030.9 627.655 2032.96 623.338 2036.71 619.925L2065.62 593.654L2100.16 562.261L2151.97 515.173L2203.79 468.085L2272.87 405.299L2359.23 326.818L2487.41 210.324L2718.2 0.585083" stroke="#444444" style="stroke:#444444;stroke:color(display-p3 0.2667 0.2667 0.2667);stroke-opacity:1;" stroke-width="2" stroke-miterlimit="10"/>
<path d="M2220.08 1646.46L2119.98 1436.72L2064.37 1320.22L2026.91 1241.74L1996.94 1178.96L1974.47 1131.87L1952 1084.78L1937.02 1053.39L1923.45 1024.97C1922.46 1022.89 1921.95 1020.7 1921.95 1018.49L1921.94 944.895V882.293L1921.93 823.463V764.634L1921.91 702.031L1921.9 634.053V628.553C1921.9 626.342 1922.41 624.149 1923.4 622.071L1936.96 593.659L1951.94 562.265L1974.42 515.178L1996.89 468.09L2026.86 405.303L2064.32 326.822L2119.91 210.328L2220.02 0.585083" stroke="#444444" style="stroke:#444444;stroke:color(display-p3 0.2667 0.2667 0.2667);stroke-opacity:1;" stroke-width="2" stroke-miterlimit="10"/>
<path d="M1816.91 0.585083V210.324V326.818V405.299V468.085V515.173V562.261V593.654V625.208V634.053V702.031V764.634V823.463V882.293V944.895V1021.83V1053.39V1084.78V1131.87V1178.96V1241.74V1320.22V1436.72V1646.46" stroke="#444444" style="stroke:#444444;stroke:color(display-p3 0.2667 0.2667 0.2667);stroke-opacity:1;" stroke-width="2" stroke-miterlimit="10"/>
<rect x="1178.94" y="622.488" width="1272.93" height="470.68" rx="70" stroke="#444444" style="stroke:#444444;stroke:color(display-p3 0.2667 0.2667 0.2667);stroke-opacity:1;" stroke-width="2" stroke-miterlimit="10"/>
</g>
<defs>
<clipPath id="clip0_172_227">
<rect width="3633" height="1647" fill="white" style="fill:white;fill-opacity:1;"/>
</clipPath>
</defs>
</svg>
