<?xml version="1.0" encoding="UTF-8"?>
<svg id="uuid-520a467e-d389-48aa-976f-a2caee018e8d" xmlns="http://www.w3.org/2000/svg" viewBox="0 0 588.03 389.89"><rect width="588.03" height="389.89" style="fill:#8D4CF6;"/><path d="M113.53,187.43c3.92-.14,7.3-.39,10.13-.76,2.83-.36,5.3-.91,7.4-1.64,2.1-.72,4.25-1.67,6.42-2.83,6.39-3.34,11.44-8.63,15.14-15.9,3.7-7.26,5.56-15.46,5.56-24.61,0-20.48-7.99-32.52-23.96-36.15,8.27-3.05,14.08-7.04,17.42-11.98,3.34-4.93,5.01-11.98,5.01-21.12,0-11.62-2.1-21.31-6.31-29.08-4.21-7.77-10.24-13.03-18.08-15.79-5.67-1.89-12.28-2.98-19.82-3.27H23.02v39.42h73.63c.94,0,1.93.07,2.94.22,1.74.15,3.41.66,5.01,1.54,1.6.88,2.83,2.16,3.7,3.85.87,1.69,1.31,3.56,1.31,5.61,0,3.08-.87,5.61-2.61,7.59-1.74,1.98-4.21,3.12-7.4,3.41-1.02,0-2,.03-2.94.11-.94.07-2,.1-3.16.1H23.02v39.64h72.22c1.01,0,1.96.07,2.83.22,1.02.14,1.96.36,2.83.65.87.29,1.67.58,2.39.87,1.45.87,2.61,2.14,3.49,3.81.87,1.67,1.31,3.52,1.31,5.55,0,3.05-.87,5.56-2.61,7.52-1.75,1.96-4.21,3.08-7.41,3.37-.87.15-1.82.22-2.83.22H23.02v39.64h75.92c5.81,0,10.67-.07,14.59-.22Z" style="fill:#151419;"/><polygon points="190.71 86.15 158.04 187.65 312.24 187.65 259.53 24.3 210.75 24.3 255.39 148.01 214.67 148.01 231.87 86.15 190.71 86.15" style="fill:#151419;"/><path d="M373.19,187.43c5.01-.14,9.29-.47,12.85-.98,3.56-.51,6.67-1.2,9.36-2.07,2.69-.87,5.41-2.03,8.17-3.49,4.06-1.89,7.69-4.5,10.89-7.84,3.19-3.34,5.95-7.15,8.27-11.43,2.32-4.28,4.1-8.93,5.34-13.94,1.23-5.01,1.85-10.27,1.85-15.79,0-8.85-1.63-17.13-4.9-24.83-3.27-7.69-8.68-16.12-16.23-25.26l-10.45-12.63-8.93-10.67c-2.91-3.49-5.2-6.39-6.86-8.71-1.67-2.32-3.01-4.35-4.03-6.1-1.02-1.74-1.67-3.38-1.96-4.9-.29-1.52-.43-3.23-.43-5.12,0-1.45.03-2.64.11-3.59.07-.94.32-2.87.76-5.77h-45.96c-.87,3.34-1.45,5.96-1.74,7.84-.29,1.89-.43,4.21-.43,6.97,0,10.31,2.97,19.6,8.93,27.88,2.03,2.91,4.61,6.2,7.73,9.91,3.12,3.7,7.37,8.6,12.74,14.7l8.06,9.15c3.78,4.21,6.89,8.03,9.37,11.43,2.46,3.42,4.42,6.5,5.88,9.26,1.6,2.91,2.39,6.1,2.39,9.58,0,3.78-1.02,7.12-3.05,10.02-2.04,2.9-4.57,4.79-7.63,5.66-3.05.87-7.33,1.31-12.85,1.31h-38.99v39.64h32.89c7.55,0,13.83-.07,18.84-.22Z" style="fill:#151419;"/><polygon points="563.17 148.01 484.04 148.01 484.04 125.79 563.17 125.79 563.17 86.15 438.96 86.15 438.96 187.65 563.17 187.65 563.17 148.01" style="fill:#151419;"/><rect x="438.96" y="24.3" width="124.22" height="39.64" style="fill:#151419;"/><path d="M190.72,213.16c-4.65-4.21-10.17-7.3-16.55-9.26-6.39-1.96-14.38-2.94-23.96-2.94H23.02v163.34h45.08v-123.71h23.74v123.71h42.91v-123.71h3.71c4.64,0,8.31.18,11,.54,2.68.36,4.71,1.2,6.1,2.5,1.38,1.31,2.25,3.23,2.61,5.77.36,2.54.54,6.07.54,10.56v104.32h44.87v-111.08c-.29-8.85-1.23-16.62-2.83-23.3-1.75-6.67-5.09-12.27-10.02-16.77Z" style="fill:#151419;"/><rect x="216.64" y="200.97" width="108.9" height="39.64" style="fill:#151419;"/><polygon points="216.64 364.31 325.53 364.31 325.53 324.67 261.72 324.67 261.72 302.46 325.53 302.46 325.53 262.82 216.64 262.82 216.64 364.31" style="fill:#151419;"/><path d="M453.16,213.16c-4.79-4.21-10.38-7.3-16.77-9.26-6.39-1.96-14.38-2.94-23.96-2.94h-74.7v163.34h45.09v-123.71h18.08c4.64,0,8.31.18,11,.54,2.68.36,4.68,1.2,5.99,2.5,1.31,1.31,2.14,3.23,2.51,5.77.36,2.54.54,6.07.54,10.56v104.32h44.87v-111.08c-.29-8.85-1.24-16.62-2.83-23.3-1.74-6.53-5.01-12.12-9.8-16.77Z" style="fill:#151419;"/><rect x="473.85" y="200.97" width="92.21" height="39.64" style="fill:#151419;"/><path d="M544.63,324.56c-2.04-.07-3.7-.14-5.01-.21s-2.43-.25-3.38-.55c-.95-.29-1.93-.65-2.94-1.09-2.47-1.16-4.21-3.12-5.23-5.88-1.02-2.75-1.6-6.67-1.75-11.76v-42.25h-44.87v33.76c0,4.79.03,8.68.11,11.65.07,2.98.14,5.56.22,7.74.07,2.17.22,4.17.43,5.99.22,1.82.54,3.89.98,6.21.58,4.07,1.52,7.81,2.83,11.21,1.31,3.42,2.9,6.35,4.79,8.82,2.32,3.05,4.93,5.63,7.84,7.73,2.9,2.1,6.42,3.78,10.56,5.01,4.14,1.24,9.11,2.11,14.92,2.61,5.81.51,12.77.76,20.9.76h16.42v-39.64h-9.01c-3.2,0-5.81-.03-7.84-.11Z" style="fill:#14121c;"/></svg>