<?xml version="1.0" encoding="UTF-8"?><svg id="uuid-c07422dd-26ee-4e2b-9232-d27dfa51d7be" xmlns="http://www.w3.org/2000/svg" xmlns:xlink="http://www.w3.org/1999/xlink" viewBox="0 0 24 24"><defs><linearGradient id="uuid-71d3ac20-2024-4cbc-9741-d080f983baf9" x1=".17" y1="20.44" x2="23.68" y2="6.87" gradientUnits="userSpaceOnUse"><stop offset="0" stop-color="#8d4cf6"/><stop offset="1" stop-color="#413a97"/></linearGradient></defs><rect x="1.5" y="4.56" width="20.85" height="18.19" style="fill:url(#uuid-71d3ac20-2024-4cbc-9741-d080f983baf9);"/><path d="M20.23,0H3.77C1.69,0,0,1.69,0,3.77v17.83c0,1.32,1.08,2.4,2.4,2.4h19.2c1.32,0,2.4-1.08,2.4-2.4V3.77c0-2.08-1.69-3.77-3.77-3.77ZM14.4,10.97v-3.09c0-.22.13-.34.17-.34h7.37v3.43h-7.54ZM21.94,13.03v3.43h-13.03v-3.09c0-.2.12-.34.23-.34h12.8ZM21.94,21.6c0,.19-.15.34-.34.34H2.4c-.19,0-.34-.15-.34-.34v-2.74c0-.19.15-.34.34-.34h19.54v3.09Z" style="fill:#16141a;"/></svg>