<?xml version="1.0" encoding="UTF-8"?><svg id="uuid-6e5505ea-b770-4fea-b05b-537a76133774" xmlns="http://www.w3.org/2000/svg" viewBox="0 0 312.25 546.22"><path d="M150.53,26.46v48.84l-8.39,8.39,8.39,8.39v30.94l-17.91,17.91H26.46V26.46h124.06ZM121.91,63.48v-8.39H55.08v14.31h60.91l5.92-5.92ZM121.91,111.12v-7.19l-5.92-5.92h-60.91v14.31h65.63l1.2-1.2Z" style="fill:#8D4CF6;"/><path d="M190.34,107.52v33.41h-28.62V26.46h124.06v114.47h-28.62v-33.41h-66.83ZM257.17,55.08h-66.83v23.82h66.83v-23.82Z" style="fill:#8D4CF6;"/><path d="M150.53,195.66v71.54H26.46v-28.62h95.45v-14.31H26.46v-71.54h124.06v28.62H55.08v14.31h95.45Z" style="fill:#8D4CF6;"/><path d="M285.78,238.59v28.62h-124.06v-114.47h124.06v28.62h-95.45v14.31h95.45v28.62h-95.45v14.31h95.45Z" style="fill:#8D4CF6;"/><path d="M26.46,279.01h124.06v114.47h-28.62v-85.85h-19.11v85.85h-28.62v-85.85h-19.11v85.85h-28.62v-114.47Z" style="fill:#8D4CF6;"/><path d="M285.78,364.86v28.62h-124.06v-114.47h124.06v28.62h-95.45v14.31h95.45v28.62h-95.45v14.31h95.45Z" style="fill:#8D4CF6;"/><path d="M55.08,449.33v70.43h-28.62v-114.47h25.02l70.43,70.35v-70.35h28.62v114.47h-25.02l-70.43-70.43Z" style="fill:#8D4CF6;"/><path d="M161.72,433.9v-28.62h124.06v28.62h-47.72v85.85h-28.62v-85.85h-47.72Z" style="fill:#8D4CF6;"/><path d="M312.25,546.22H0V0h312.25v546.22ZM12.93,533.29h286.39V12.93H12.93v520.36Z" style="fill:#8D4CF6;"/></svg>