<?xml version="1.0" encoding="UTF-8"?><svg id="uuid-f637a590-5ac3-493e-898e-1eec95285faf" xmlns="http://www.w3.org/2000/svg" viewBox="0 0 728.54 367.22"><path d="M188.23,33.17v61.04l-10.49,10.49,10.49,10.49v38.66l-22.38,22.38H33.17V33.17h155.06ZM152.46,79.42v-10.49h-83.52v17.88h76.13l7.39-7.4ZM152.46,138.97v-8.99l-7.39-7.39h-76.13v17.88h82.03l1.5-1.5Z" style="fill:#8D4CF6;"/><path d="M237.98,134.47v41.76h-35.77V33.17h155.06v143.07h-35.77v-41.76h-83.52ZM321.51,68.93h-83.52v29.77h83.52v-29.77Z" style="fill:#8D4CF6;"/><path d="M526.32,86.82v89.42h-155.06v-35.77h119.29v-17.88h-119.29V33.17h155.06v35.77h-119.29v17.88h119.29Z" style="fill:#8D4CF6;"/><path d="M695.37,140.47v35.77h-155.06V33.17h155.06v35.77h-119.29v17.88h119.29v35.77h-119.29v17.88h119.29Z" style="fill:#8D4CF6;"/><path d="M33.17,190.99h155.06v143.07h-35.77v-107.3h-23.88v107.3h-35.77v-107.3h-23.88v107.3h-35.77v-143.07Z" style="fill:#8D4CF6;"/><path d="M357.27,298.29v35.77h-155.06v-143.07h155.06v35.77h-119.29v17.88h119.29v35.77h-119.29v17.88h119.29Z" style="fill:#8D4CF6;"/><path d="M407.03,246.04v88.02h-35.77v-143.07h31.27l88.02,87.92v-87.92h35.77v143.07h-31.27l-88.02-88.02Z" style="fill:#8D4CF6;"/><path d="M540.31,226.75v-35.77h155.06v35.77h-59.65v107.3h-35.77v-107.3h-59.65Z" style="fill:#8D4CF6;"/><path d="M728.54,367.22H0V0h728.54v367.22ZM16.2,351.02h696.13V16.2H16.2v334.82Z" style="fill:#8D4CF6;"/></svg>