<?xml version="1.0" encoding="UTF-8"?><svg id="bsmnt-logo" xmlns="http://www.w3.org/2000/svg" viewBox="0 0 763.33 278.88"><polygon points="722.4 278.88 0 278.88 0 79.24 40.94 0 763.33 0 763.33 199.64 722.4 278.88" style="fill:#8D4CF6;"/><polygon points="682.92 63.37 682.92 30.99 616.41 30.99 599.9 63.37 128.86 63.37 128.86 30.99 62.34 30.99 37.41 79.9 37.41 232.25 159.56 232.25 159.56 264.63 291.53 264.63 308.03 232.25 700.99 232.25 725.92 183.34 725.92 63.37 682.92 63.37" style="fill:#151419;"/><path d="M73.41,42.06h44.37v21.93c0,6,4.45,10.45,10.45,10.45h53.62v97.83h-108.45V42.06ZM140.44,123.24c0-7.35-5.79-12.69-12.47-12.69-7.13,0-13.14,5.34-13.14,12.69s6.01,12.92,13.14,12.92c6.68,0,12.47-5.79,12.47-12.92Z" style="fill:#FFFFFF;"/><path d="M195.57,170.38h39.4c8.05,0,9.25-8.57,3.94-12.51l-39.92-29.12v-54.31h104.68v34.27h-34.78c-8.05,0-9.59,8.39-3.94,12.51l40.43,29.12v54.31h-109.82v-34.27Z" style="fill:#FFFFFF;"/><path d="M319.09,74.44h172.52v97.83h-44.37v-48.66c0-5.65-4.28-9.94-9.94-9.94s-9.77,4.28-9.77,9.94v48.66h-44.37v-48.66c0-5.65-4.28-9.94-9.94-9.94s-9.77,4.28-9.77,9.94v48.66h-44.37v-97.83Z" style="fill:#FFFFFF;"/><path d="M505.32,74.44h108.45v97.83h-44.37v-49c0-5.48-4.45-9.59-9.59-9.59-5.48,0-10.11,4.11-10.11,9.59v49h-44.37v-97.83Z" style="fill:#FFFFFF;"/><path d="M627.48,42.06h44.37v21.93c0,6,4.45,10.45,10.45,10.45h32.55v39.23h-33.24c-5.65,0-9.77,4.11-9.77,9.77s4.11,9.59,9.77,9.59h33.24v39.23h-87.37V42.06Z" style="fill:#FFFFFF;"/></svg>