<svg xmlns="http://www.w3.org/2000/svg" width="500" height="73" fill="none"><path fill="#fff" fill-rule="evenodd" d="M26.284 0a3.463 3.463 0 0 1 3.463 3.463v8.207a3.463 3.463 0 0 1-3.463 3.463h-7.688a3.463 3.463 0 0 0-3.463 3.463v50.578a3.463 3.463 0 0 1-3.463 3.463H3.463A3.463 3.463 0 0 1 0 69.174V18.596a3.463 3.463 0 0 1 3.463-3.463h7.688a3.463 3.463 0 0 0 3.463-3.463V3.463A3.463 3.463 0 0 1 18.077 0h8.206zm30.265 0a3.463 3.463 0 0 1 3.463 3.463v8.207a3.463 3.463 0 0 0 3.463 3.463h7.688a3.463 3.463 0 0 1 3.463 3.463v50.578a3.463 3.463 0 0 1-3.463 3.463h-8.207a3.463 3.463 0 0 1-3.463-3.463V18.596a3.463 3.463 0 0 0-3.463-3.463h-7.688a3.463 3.463 0 0 1-3.463-3.463V3.463A3.463 3.463 0 0 1 48.342 0h8.207zM41.416 28.968a3.463 3.463 0 0 1 3.463 3.463v22.475a3.463 3.463 0 0 1-3.463 3.463H33.21a3.463 3.463 0 0 1-3.463-3.463V32.43a3.463 3.463 0 0 1 3.462-3.463h8.207zm114.832-12.466h4.719l-.022 45.938h8.298V8.63h-12.995v7.872zm-22.758-6.206h-22.546v52.178h23.798c10.143 0 15.735-6.602 15.735-14.998a13.717 13.717 0 0 0-2.411-8.159c-1.641-2.37-3.984-4.115-6.67-4.964v-.244a11.314 11.314 0 0 0 5.054-4.445 12.01 12.01 0 0 0 1.757-6.641c0-7.51-5.167-12.727-14.717-12.727zm6.34 14.218c0 4.215-2.583 6.986-6.184 6.986h-14.303V17.527h14.303c3.601 0 6.184 2.771 6.184 6.986zm2.271 22.392c0 4.972-3.132 8.395-7.437 8.395h-15.321v-16.71h15.321c4.305 0 7.437 3.343 7.437 8.315zm34.824-3.75c0-11.819 8.388-20.54 19.974-20.54s20.04 8.64 20.04 20.54c0 11.901-8.376 20.46-20.04 20.46s-19.974-8.64-19.974-20.46zm17.782 12.716h4.473c5.089 0 9.551-5.624 9.551-12.716 0-7.091-4.473-12.809-9.551-12.809h-4.473c-5.088 0-9.551 5.823-9.551 12.81 0 6.986 4.463 12.715 9.551 12.715zm47.126-33.257c-11.507 0-19.503 8.396-19.503 20.46 0 12.063 7.906 20.54 19.38 20.61 9.439 0 16.775-5.216 17.894-15.242h-8.064a8.445 8.445 0 0 1-2.573 5.41 7.81 7.81 0 0 1-5.411 2.17h-3.915c-5.01 0-9.08-5.775-9.08-12.878s4.07-12.81 9.08-12.81h3.915c3.601 0 7.123 2.283 7.906 7.418h8.063c-1.174-10.165-8.454-15.137-17.692-15.137zM267.029 8.63h8.22v29.682h5.961l11.116-14.59h9.394l-13.7 18.014 14.326 20.704h-9.863l-11.978-17.118h-5.256V62.44h-8.22V8.63zm46.981 42.188h-7.906c.302 8.478 5.592 12.798 16.495 12.786 11.273 0 16.361-4.402 16.361-12.39 0-6.194-3.288-10.189-10.411-11.085l-8.779-1.165c-3.366-.489-4.932-2.2-4.932-4.727s1.644-4.484 5.167-4.484h4.708c4.071 0 5.401 2.364 5.793 5.706h7.906c-.301-8.884-6.094-12.879-15.656-12.879-9.987 0-15.579 4.24-15.579 12.064 0 5.95 3.288 10.515 10.647 11.412l8.701 1.164c3.366.501 4.775 2.05 4.775 4.658 0 2.608-1.722 4.565-5.402 4.565h-5.178c-4.283 0-6.318-2.201-6.71-5.625zm30.117-7.743c0-12.064 7.985-20.46 19.504-20.46 9.237 0 16.518 4.973 17.692 15.138h-8.063c-.783-5.135-4.306-7.417-7.907-7.417h-3.914c-5.021 0-9.092 5.706-9.092 12.809 0 7.103 4.071 12.878 9.092 12.878h3.914a7.81 7.81 0 0 0 5.411-2.17c1.479-1.404 2.397-3.334 2.574-5.41h8.063c-1.118 10.026-8.455 15.242-17.893 15.242-11.463-.07-19.381-8.547-19.381-20.61zm62.459-20.46c-11.586 0-19.962 8.722-19.962 20.541 0 11.82 8.286 20.46 19.962 20.46 11.675 0 20.052-8.559 20.052-20.46 0-11.9-8.466-20.54-20.052-20.54zm2.281 33.257h-4.451c-5.088 0-9.573-5.729-9.573-12.716 0-6.986 4.463-12.809 9.551-12.809h4.473c5.089 0 9.562 5.718 9.562 12.81 0 7.09-4.473 12.715-9.562 12.715zm24.592-7.743v-24.36h8.22v22.904c0 5.624 2.74 8.966 6.341 8.966h4.473c3.836 0 7.281-3.668 7.281-8.966V23.768h8.231v38.718h-7.996v-5.298c-2.237 3.994-6.185 6.44-12.213 6.44-9.013-.012-14.337-5.474-14.337-15.5zm48.223-16.827v22.125c0 5.787 3.355 9.047 9.371 9.06H500v-7.744h-6.576c-2.661 0-3.444-1.223-3.444-3.75V31.267h9.707v-7.499h-9.707V12.916h-8.298v10.852h-7.202v7.534h7.202z" clip-rule="evenodd"/></svg>