<svg xmlns="http://www.w3.org/2000/svg" width="522" height="140" fill="none"><g filter="url(#a)"><path fill="url(#b)" fill-rule="evenodd" d="M63.087 111.55c.296.171.627.259.957.259v-.007c.33 0 .661-.088.958-.258l38.136-22.24c.593-.34.957-.98.957-1.667v-44.47a1.93 1.93 0 0 0-.957-1.668L65.002 19.26a1.892 1.892 0 0 0-1.915 0L24.957 41.5c-.593.34-.957.98-.957 1.666v44.478c0 .688.364 1.32.958 1.667l38.129 22.239zM40.076 90.981l20.893 12.152v-8.779l-20.893-3.373zm27.044 12.145V94.34l20.902-3.375-20.902 12.161zm2.738-15.434 15.966-28.806 10.05 24.54-26.016 4.266zm-11.75-.136-25.967-4.26 9.187-24.498 16.78 28.758zm5.896-2.028-17.84-30.664H80.96L64.004 85.528zm34.055-13.209-7.905-19.21 7.905-4.254V72.32zm-67.9-1.184V49.1l6.805 3.975-6.806 18.06zm49.75-22.484H47.262l16.74-20.197L79.909 48.65zm7.041-.878L74.722 32.088l19.89 11.596-7.662 4.09zm-46.897-.04-6.725-3.968v-.007l19.17-11.18-12.445 15.155z" clip-rule="evenodd"/><path fill="#fff" d="M136.317 90.323c-.475 0-.878-.166-1.21-.498a1.65 1.65 0 0 1-.499-1.21V42.266c0-.522.167-.949.499-1.281a1.646 1.646 0 0 1 1.21-.499h20.647c3.845 0 6.977.594 9.398 1.78 2.42 1.14 4.2 2.73 5.339 4.77 1.187 2.041 1.78 4.415 1.78 7.12 0 1.804-.332 3.394-.996 4.77-.617 1.33-1.401 2.42-2.35 3.275-.902.855-1.803 1.519-2.705 1.994 1.851.854 3.488 2.278 4.912 4.271 1.424 1.994 2.136 4.367 2.136 7.12 0 2.848-.641 5.387-1.922 7.618-1.282 2.23-3.18 3.987-5.696 5.268-2.515 1.235-5.624 1.852-9.327 1.852h-21.216zm8.188-7.546h11.889c2.563 0 4.509-.689 5.838-2.065 1.329-1.424 1.994-3.133 1.994-5.126 0-2.088-.688-3.82-2.065-5.197-1.329-1.377-3.251-2.065-5.767-2.065h-11.889v14.453zm0-21.857h11.177c2.516 0 4.391-.594 5.625-1.78 1.281-1.234 1.922-2.824 1.922-4.77 0-1.994-.641-3.536-1.922-4.628-1.234-1.14-3.109-1.709-5.625-1.709h-11.177V60.92zm47.74 29.403c-.475 0-.878-.166-1.21-.498a1.646 1.646 0 0 1-.499-1.21v-46.42c0-.475.166-.878.499-1.21a1.646 1.646 0 0 1 1.21-.499h6.621c.475 0 .878.167 1.21.499.333.332.499.735.499 1.21v39.656h22.569c.522 0 .949.166 1.281.499.333.332.499.759.499 1.281v4.984c0 .475-.166.878-.499 1.21-.332.332-.759.498-1.281.498h-30.899zm65.236.712c-4.224 0-7.855-.688-10.893-2.064-3.038-1.424-5.411-3.584-7.12-6.479-1.708-2.943-2.634-6.598-2.776-10.964a257.405 257.405 0 0 1 0-12.175c.142-4.319 1.091-7.926 2.848-10.822 1.756-2.895 4.153-5.078 7.19-6.55 3.085-1.47 6.669-2.207 10.751-2.207s7.665.736 10.751 2.207c3.085 1.472 5.505 3.655 7.261 6.55 1.757 2.896 2.706 6.503 2.848 10.822a130.157 130.157 0 0 1 0 12.175c-.142 4.366-1.068 8.021-2.776 10.964-1.709 2.895-4.106 5.055-7.191 6.479-3.038 1.376-6.669 2.064-10.893 2.064zm0-8.187c3.085 0 5.601-.902 7.547-2.706 1.946-1.85 2.99-4.84 3.132-8.97.095-2.089.143-4.01.143-5.767 0-1.804-.048-3.726-.143-5.767-.095-2.753-.617-4.984-1.566-6.692-.902-1.756-2.136-3.014-3.702-3.774-1.567-.807-3.37-1.21-5.411-1.21-1.994 0-3.773.403-5.34 1.21-1.566.76-2.824 2.018-3.773 3.774-.902 1.708-1.4 3.94-1.495 6.692a245.738 245.738 0 0 0-.071 5.767c0 1.756.023 3.678.071 5.767.142 4.13 1.186 7.12 3.132 8.97 1.946 1.804 4.438 2.706 7.476 2.706zm56.694 8.187c-4.414 0-8.164-.759-11.249-2.278-3.038-1.566-5.363-3.773-6.977-6.621-1.614-2.895-2.516-6.36-2.705-10.395a254.955 254.955 0 0 1-.072-6.265c0-2.23.024-4.367.072-6.407.189-3.988 1.091-7.429 2.705-10.324 1.661-2.895 4.011-5.102 7.048-6.621 3.086-1.566 6.811-2.35 11.178-2.35 3.228 0 6.123.428 8.686 1.282 2.563.854 4.746 2.04 6.55 3.56 1.804 1.471 3.204 3.204 4.201 5.197.996 1.993 1.518 4.153 1.566 6.479.047.427-.095.783-.427 1.068a1.45 1.45 0 0 1-1.068.427h-6.764c-.522 0-.949-.119-1.281-.356-.333-.285-.57-.736-.712-1.353-.76-3.132-2.065-5.268-3.916-6.407-1.851-1.14-4.153-1.71-6.906-1.71-3.18 0-5.719.903-7.618 2.706-1.899 1.757-2.919 4.676-3.061 8.758a166.77 166.77 0 0 0 0 11.96c.142 4.082 1.162 7.025 3.061 8.829 1.899 1.756 4.438 2.634 7.618 2.634 2.753 0 5.055-.57 6.906-1.709 1.851-1.186 3.156-3.322 3.916-6.407.142-.665.379-1.116.712-1.353.332-.237.759-.356 1.281-.356h6.764c.427 0 .783.142 1.068.427.332.285.474.64.427 1.068-.048 2.326-.57 4.485-1.566 6.479-.997 1.993-2.397 3.75-4.201 5.268-1.804 1.472-3.987 2.635-6.55 3.489-2.563.854-5.458 1.281-8.686 1.281zm38.275-.712a1.65 1.65 0 0 1-1.211-.498 1.649 1.649 0 0 1-.498-1.21V42.266c0-.522.166-.949.498-1.281a1.65 1.65 0 0 1 1.211-.499h6.265c.522 0 .949.167 1.281.499.333.332.499.76.499 1.281v16.66l16.09-17.158c.19-.237.498-.498.926-.783.474-.332 1.091-.499 1.851-.499h7.048c.38 0 .712.143.997.428.332.284.498.64.498 1.067 0 .333-.095.617-.285.855l-19.578 21.501 20.931 23.566c.237.285.356.593.356.925 0 .428-.166.784-.498 1.068a1.367 1.367 0 0 1-.997.427h-7.333c-.807 0-1.448-.166-1.922-.498-.428-.38-.712-.64-.855-.783l-17.229-18.867v18.44c0 .475-.166.878-.499 1.21-.332.332-.759.498-1.281.498h-6.265zm70.119.712c-4.129 0-7.713-.688-10.75-2.064-3.038-1.424-5.387-3.584-7.049-6.479-1.661-2.943-2.492-6.692-2.492-11.249V42.266c0-.522.167-.949.499-1.281a1.648 1.648 0 0 1 1.21-.499h6.479c.522 0 .926.167 1.21.499.333.332.499.76.499 1.281v28.977c0 3.892.925 6.787 2.776 8.686 1.851 1.851 4.391 2.777 7.618 2.777 3.228 0 5.743-.926 7.547-2.777 1.851-1.899 2.777-4.794 2.777-8.686V42.266c0-.522.166-.949.498-1.281.332-.332.759-.499 1.282-.499h6.407c.522 0 .926.167 1.211.499.332.332.498.76.498 1.281v28.977c0 4.557-.831 8.306-2.492 11.249-1.614 2.895-3.939 5.055-6.977 6.479-2.99 1.376-6.574 2.064-10.751 2.064zm55.312 0c-4.414 0-8.117-.64-11.107-1.922-2.943-1.329-5.197-3.037-6.763-5.126-1.519-2.136-2.326-4.367-2.421-6.692 0-.427.142-.784.427-1.068a1.45 1.45 0 0 1 1.068-.427h6.336c.618 0 1.068.142 1.353.427.332.237.617.546.855.925.284.902.83 1.804 1.637 2.706.807.854 1.899 1.566 3.275 2.136 1.424.57 3.204.854 5.34.854 3.417 0 5.956-.57 7.618-1.709 1.708-1.139 2.563-2.681 2.563-4.627 0-1.377-.451-2.469-1.353-3.275-.902-.855-2.302-1.614-4.201-2.279-1.851-.712-4.319-1.447-7.404-2.207-3.56-.854-6.55-1.875-8.971-3.061-2.373-1.234-4.176-2.777-5.41-4.628-1.187-1.851-1.78-4.2-1.78-7.048 0-2.753.735-5.198 2.207-7.334 1.519-2.136 3.654-3.82 6.407-5.054 2.801-1.235 6.123-1.852 9.968-1.852 3.085 0 5.814.428 8.187 1.282 2.374.807 4.343 1.899 5.91 3.275 1.566 1.329 2.752 2.777 3.559 4.343.855 1.519 1.306 3.014 1.353 4.485 0 .38-.142.736-.427 1.068-.237.285-.593.427-1.068.427h-6.621c-.38 0-.76-.095-1.139-.284-.38-.19-.689-.546-.926-1.068-.285-1.472-1.21-2.73-2.777-3.774-1.566-1.044-3.583-1.566-6.051-1.566-2.563 0-4.628.475-6.194 1.424-1.567.95-2.35 2.42-2.35 4.414 0 1.329.38 2.444 1.139 3.346.807.855 2.065 1.614 3.774 2.279 1.756.664 4.058 1.376 6.906 2.135 4.034.902 7.333 1.946 9.896 3.133 2.563 1.187 4.438 2.705 5.624 4.556 1.187 1.804 1.78 4.106 1.78 6.907 0 3.132-.854 5.814-2.563 8.045-1.661 2.183-4.01 3.868-7.048 5.055-3.038 1.186-6.574 1.78-10.608 1.78z"/></g><defs><linearGradient id="b" x1="24" x2="102.5" y1="19" y2="113.5" gradientUnits="userSpaceOnUse"><stop stop-color="#BFC1FF"/><stop offset=".521" stop-color="#B1C2FF"/><stop offset="1" stop-color="#89D0FF"/></linearGradient><filter id="a" width="520.974" height="139.682" x=".563" y=".251" color-interpolation-filters="sRGB" filterUnits="userSpaceOnUse"><feFlood flood-opacity="0" result="BackgroundImageFix"/><feColorMatrix in="SourceAlpha" result="hardAlpha" values="0 0 0 0 0 0 0 0 0 0 0 0 0 0 0 0 0 0 127 0"/><feOffset dy="4.687"/><feGaussianBlur stdDeviation="11.718"/><feComposite in2="hardAlpha" operator="out"/><feColorMatrix values="0 0 0 0 0 0 0 0 0 0 0 0 0 0 0 0 0 0 0.05 0"/><feBlend in2="BackgroundImageFix" result="effect1_dropShadow_773_23122"/><feBlend in="SourceGraphic" in2="effect1_dropShadow_773_23122" result="shape"/></filter></defs></svg>