<svg xmlns="http://www.w3.org/2000/svg" viewBox="0 0 763.33 278.88"><path d="M722.4 278.88H0V79.24L40.94 0h722.39v199.64l-40.93 79.24z" style="fill:#8d4cf6"/><path d="M682.92 63.37V30.99h-66.51L599.9 63.37H128.86V30.99H62.34L37.41 79.9v152.35h122.15v32.38h131.97l16.5-32.38h392.96l24.93-48.91V63.37h-43z" style="fill:#151419"/><path d="M73.41 42.06h44.37v21.93c0 6 4.45 10.45 10.45 10.45h53.62v97.83H73.4V42.06Zm67.03 81.18c0-7.35-5.79-12.69-12.47-12.69-7.13 0-13.14 5.34-13.14 12.69s6.01 12.92 13.14 12.92c6.68 0 12.47-5.79 12.47-12.92Zm55.13 47.14h39.4c8.05 0 9.25-8.57 3.94-12.51l-39.92-29.12V74.44h104.68v34.27h-34.78c-8.05 0-9.59 8.39-3.94 12.51l40.43 29.12v54.31H195.56v-34.27Zm123.52-95.94h172.52v97.83h-44.37v-48.66c0-5.65-4.28-9.94-9.94-9.94s-9.77 4.28-9.77 9.94v48.66h-44.37v-48.66c0-5.65-4.28-9.94-9.94-9.94s-9.77 4.28-9.77 9.94v48.66h-44.37V74.44Zm186.23 0h108.45v97.83H569.4v-49c0-5.48-4.45-9.59-9.59-9.59-5.48 0-10.11 4.11-10.11 9.59v49h-44.37V74.44Zm122.16-32.38h44.37v21.93c0 6 4.45 10.45 10.45 10.45h32.55v39.23h-33.24c-5.65 0-9.77 4.11-9.77 9.77s4.11 9.59 9.77 9.59h33.24v39.23h-87.37V42.06Z" style="fill:#fff"/></svg>