<svg xmlns="http://www.w3.org/2000/svg" width="301" height="140" fill="none"><path fill="#F7A600" d="M189.808 86.345V39h9.504v47.345h-9.504Z"/><path fill="#fff" d="M79.043 100.411H58.666V53.066h19.556c9.505 0 15.043 5.187 15.043 13.3 0 5.251-3.557 8.645-6.019 9.775 2.939 1.33 6.7 4.321 6.7 10.641 0 8.841-6.22 13.629-14.904 13.629ZM77.47 61.313h-9.3V72.22h9.3c4.033 0 6.29-2.195 6.29-5.455 0-3.256-2.257-5.45-6.29-5.45Zm.614 19.218H68.17v11.637h9.914c4.31 0 6.358-2.659 6.358-5.853 0-3.19-2.052-5.784-6.358-5.784Zm44.856.463v19.417h-9.437V80.994L98.87 53.066h10.324l9.094 19.084 8.957-19.084h10.324L122.94 80.994Zm41.571 19.417h-20.375V53.066h19.556c9.504 0 15.042 5.187 15.042 13.3 0 5.251-3.556 8.645-6.018 9.775 2.938 1.33 6.7 4.321 6.7 10.641 0 8.841-6.22 13.629-14.905 13.629Zm-1.571-39.098h-9.3V72.22h9.3c4.033 0 6.29-2.195 6.29-5.455 0-3.256-2.257-5.45-6.29-5.45Zm.614 19.218h-9.914v11.637h9.914c4.309 0 6.357-2.659 6.357-5.853 0-3.19-2.048-5.784-6.357-5.784Zm66.39-19.218v39.102h-9.504V61.313h-12.718v-8.247h34.941v8.247h-12.719Z"/></svg>