<svg xmlns="http://www.w3.org/2000/svg" id="Layer_2" data-name="Layer 2" viewBox="0 0 675 122"><defs><style>.cls-4{fill:#838383}.cls-6{letter-spacing:-.03em}.cls-4{font-family:Inter-Light,Inter;font-size:18px;font-variation-settings:&quot;opsz&quot;14,&quot;wght&quot;300;font-weight:300}</style></defs><g id="Layer_1-2" data-name="Layer 1"><path d="M0 41h675M312 1v121M186 1v121M430 1v121M550 1v121" style="fill:none;stroke:#838383;stroke-miterlimit:10;stroke-width:.5px"/><text class="cls-4" transform="translate(25.68 27.29)"><tspan x="0" y="0">Chain</tspan></text><text class="cls-4" transform="translate(24.68 64.29)"><tspan x="0" y="0">Illustrati</tspan><tspan x="64.31" y="0" style="letter-spacing:-.02em">v</tspan><tspan x="73.97" y="0">e</tspan><tspan x="0" y="21.6" style="letter-spacing:-.06em">T</tspan><tspan x="10.42" y="21.6">ransaction Cost</tspan><tspan x="0" y="43.2">(Ju</tspan><tspan x="27.07" y="43.2" style="letter-spacing:0">l</tspan><tspan x="31.33" y="43.2">y 20</tspan><tspan x="68.57" y="43.2" style="letter-spacing:-.02em">2</tspan><tspan x="79.34" y="43.2">4)</tspan></text><text class="cls-4" transform="translate(220.68 30.29)"><tspan x="0" y="0">ETH (</tspan><tspan x="46.81" y="0" style="letter-spacing:-.05em">L</tspan><tspan x="56.15" y="0">1)</tspan></text><text class="cls-4" transform="translate(224.68 86.79)"><tspan x="0" y="0">$</tspan><tspan x="11.37" y="0" style="letter-spacing:-.02em">3</tspan><tspan x="21.88" y="0" class="cls-6">.</tspan><tspan x="26.5" y="0">00</tspan></text><text class="cls-4" transform="translate(343.38 85.79)"><tspan x="0" y="0">$</tspan><tspan x="11.37" y="0" class="cls-6">0.</tspan><tspan x="26.66" y="0">005</tspan></text><text class="cls-4" transform="translate(463 86.79)"><tspan x="0" y="0">$</tspan><tspan x="11.37" y="0" class="cls-6">0.</tspan><tspan x="26.66" y="0">005</tspan></text><text class="cls-4" transform="translate(584.68 85.79)"><tspan x="0" y="0">$</tspan><tspan x="11.37" y="0" class="cls-6">0.</tspan><tspan x="26.66" y="0">001</tspan></text><text class="cls-4" transform="translate(332.99 30.29)"><tspan x="0" y="0">Base (L2)</tspan></text><text class="cls-4" transform="translate(464.36 30.29)"><tspan x="0" y="0">Solana</tspan></text><text class="cls-4" transform="translate(582.68 30.29)"><tspan x="0" y="0">B3 (L3)</tspan></text><path d="M674.5.5v121H.5V.5h674m.5-.5H0v122h675V0Z" style="fill:#838383"/></g></svg>