<svg xmlns="http://www.w3.org/2000/svg" width="301" height="140" fill="none"><path fill="#0052FF" d="M80.56 60.446c-8.5 0-15.142 6.33-15.142 14.803 0 8.474 6.474 14.749 15.142 14.749 8.669 0 15.256-6.384 15.256-14.803 0-8.365-6.475-14.749-15.256-14.749Zm.058 23.445c-4.841 0-8.388-3.687-8.388-8.64 0-5.008 3.49-8.694 8.33-8.694 4.899 0 8.444 3.742 8.444 8.694 0 4.953-3.545 8.64-8.386 8.64Zm17.054-17.005h4.223V89.45h6.755V60.996H97.672v5.89Zm-49.254-.33c3.548 0 6.362 2.145 7.43 5.337h7.15c-1.295-6.823-7.037-11.447-14.522-11.447-8.5 0-15.143 6.33-15.143 14.805C33.333 83.727 39.807 90 48.476 90c7.317 0 13.171-4.623 14.467-11.503h-7.094c-1.014 3.192-3.828 5.394-7.375 5.394-4.899 0-8.331-3.687-8.331-8.64.002-5.008 3.38-8.696 8.275-8.696Zm177.597 5.943-4.954-.715c-2.364-.329-4.052-1.1-4.052-2.916 0-1.982 2.196-2.971 5.178-2.971 3.265 0 5.349 1.375 5.799 3.631h6.53c-.733-5.723-5.236-9.08-12.159-9.08-7.15 0-11.878 3.578-11.878 8.64 0 4.842 3.097 7.65 9.344 8.53l4.954.715c2.421.329 3.772 1.267 3.772 3.027 0 2.256-2.364 3.192-5.629 3.192-3.997 0-6.249-1.596-6.587-4.017h-6.642c.62 5.559 5.066 9.465 13.172 9.465 7.375 0 12.271-3.302 12.271-8.971 0-5.063-3.545-7.705-9.119-8.53ZM105.272 49.275c-2.476 0-4.335 1.76-4.335 4.181 0 2.421 1.856 4.182 4.335 4.182 2.477 0 4.336-1.76 4.336-4.181 0-2.422-1.859-4.182-4.336-4.182ZM204.4 70.739c0-6.163-3.828-10.29-11.933-10.29-7.656 0-11.933 3.798-12.779 9.631h6.7c.337-2.256 2.139-4.127 5.966-4.127 3.435 0 5.124 1.485 5.124 3.302 0 2.367-3.097 2.971-6.925 3.357-5.179.55-11.596 2.31-11.596 8.915 0 5.119 3.885 8.419 10.077 8.419 4.841 0 7.881-1.981 9.402-5.12.225 2.807 2.364 4.624 5.348 4.624h3.94v-5.888h-3.322V70.74h-.002Zm-6.642 7.154c0 3.798-3.377 6.605-7.488 6.605-2.534 0-4.673-1.046-4.673-3.246 0-2.807 3.435-3.578 6.587-3.907 3.04-.275 4.729-.935 5.574-2.202v2.75Zm-35.857-17.447c-3.773 0-6.925 1.542-9.176 4.128V49h-6.755v40.45h6.642v-3.742c2.252 2.696 5.461 4.292 9.289 4.292 8.105 0 14.242-6.273 14.242-14.749 0-8.475-6.249-14.805-14.242-14.805Zm-1.013 23.445c-4.841 0-8.388-3.687-8.388-8.64 0-4.952 3.602-8.694 8.443-8.694 4.898 0 8.331 3.688 8.331 8.694 0 4.953-3.545 8.64-8.386 8.64Zm-31.074-23.445c-4.39 0-7.262 1.76-8.951 4.238v-3.688h-6.699v28.452h6.754V73.985c0-4.349 2.815-7.43 6.98-7.43 3.885 0 6.305 2.696 6.305 6.605v16.29h6.754V72.666c.002-7.157-3.768-12.22-11.143-12.22Zm137.519 13.87c0-8.144-6.079-13.867-14.242-13.867-8.669 0-15.03 6.383-15.03 14.802 0 8.861 6.812 14.749 15.142 14.749 7.038 0 12.554-4.073 13.96-9.85h-7.037c-1.013 2.53-3.49 3.962-6.812 3.962-4.335 0-7.6-2.642-8.331-7.265h22.348v-2.531h.002Zm-21.955-2.202c1.071-3.963 4.11-5.888 7.6-5.888 3.828 0 6.755 2.146 7.43 5.888h-15.03Z"/></svg>