<svg xmlns="http://www.w3.org/2000/svg" width="300" height="140" fill="none"><path fill="#fff" d="M173.269 54.585h-5.764v6.201h-3.452v5.442h3.452v14.236c-.04 1.248.143 2.493.539 3.678a5.75 5.75 0 0 0 1.569 2.297 5.936 5.936 0 0 0 2.367 1.321c1.999.486 4.085.486 6.083 0 .794-.21 1.56-.513 2.281-.906v-4.379a9.203 9.203 0 0 1-3.408.723 3.307 3.307 0 0 1-2.669-.906c-.663-.625-1.014-1.445-1.014-2.826V66.228h7.091v-5.441h-7.075v-6.202Zm-18.135 8.132a14.073 14.073 0 0 0-22.388 11.357 14.078 14.078 0 0 0 7.707 12.552 14.075 14.075 0 0 0 14.681-1.195v1.946h5.765V60.765h-5.765v1.952Zm-8.315 19.645a8.319 8.319 0 0 1-7.683-5.134A8.311 8.311 0 0 1 145.2 65.89a8.312 8.312 0 0 1 8.535 3.54 8.316 8.316 0 0 1-6.916 12.931Zm-31.59-13.481v6.417h8.677a10.208 10.208 0 0 1-10.192 7.852 11.06 11.06 0 1 1 8.353-18.335l4.966-4.055a17.468 17.468 0 0 0-15.674-6.01 17.476 17.476 0 0 0-13.504 9.97 17.472 17.472 0 0 0 15.853 24.814 16.713 16.713 0 0 0 12.144-4.912 17.176 17.176 0 0 0 4.74-10.246c.157-1.837.184-3.682.081-5.522l-15.444.027Zm129.681-8.887A14.082 14.082 0 0 0 231.1 76.82a14.075 14.075 0 0 0 19.198 10.261 14.079 14.079 0 0 0 8.692-13.008 14.073 14.073 0 0 0-8.687-13.028 14.084 14.084 0 0 0-5.393-1.074v.022Zm0 22.39a8.318 8.318 0 0 1-7.683-5.135 8.312 8.312 0 0 1 6.064-11.337 8.313 8.313 0 0 1 9.934 8.162 8.31 8.31 0 0 1-8.315 8.288v.022Zm-23.512 5.015h6.201V63.515h-6.201V87.4Zm-9.475 0h6.202v-6.223h-6.202v6.223Zm-15.714-27.405a14.08 14.08 0 1 0 12.36 20.799l-5.204-2.53a8.313 8.313 0 0 1-12.672 2.01 8.316 8.316 0 0 1-2.53-4.096h21.981a14.09 14.09 0 0 0-8.04-14.928 14.085 14.085 0 0 0-5.879-1.288l-.016.033Zm-7.781 11.146a8.305 8.305 0 0 1 7.779-5.386 8.306 8.306 0 0 1 7.778 5.386h-15.557Zm32.97-10.332h6.201v-6.201h-6.201v6.201ZM65.59 84.681a13.751 13.751 0 0 1 0-27.502V45.93a25 25 0 1 0 25 25H79.341a13.751 13.751 0 0 1-13.75 13.751Z"/><path fill="#fff" d="M79.341 57.179h-13.75V70.93h13.75V57.179Z"/></svg>