<svg xmlns="http://www.w3.org/2000/svg" xml:space="preserve" id="Helika_Logo" x="0" y="0" style="enable-background:new 0 0 2000 460" version="1.1" viewBox="0 0 2000 460"><style>.st0{fill:#fff}</style><path id="Wordmark_1_" d="m1714.2 332.7 25.4-34.3c2.8-3.9 7.3-6 12-6h71.7c12.1 0 19.2-13.6 12.3-23.5-2.9-4.1-5.7-8.2-8.4-11.9l-33.6-48.6c-5.8-8.5-18.4-8.6-24.4-.2l-102.4 142.2c-2.8 3.9-7.3 6.2-12.1 6.2h-56.3c-12.2 0-19.2-13.8-12.1-23.7L1732.2 131c10.7-14.5 26.2-27.9 50.9-27.9s39.1 12.3 50.1 27.9l142.2 202c6.9 9.9-.1 23.5-12.2 23.5H1726c-12-.1-19-14-11.8-23.8zm-156.5 23.7h-69.3c-3.6 0-7.1-1.3-9.9-3.6l-72.5-61.9c-8.2-7-15.1-12.9-20.9-17.9-9.9-8.5-25.1-1.5-25.1 11.7v56.7c0 8.4-6.8 15.2-15.2 15.2h-48.7c-8.4 0-15.2-6.8-15.2-15.2V122.3c0-8.4 6.8-15.2 15.2-15.2h48.7c8.4 0 15.2 6.8 15.2 15.2v50.8c-.2 13.1 15.1 20.3 25 11.7 5.8-5 12.5-10.7 20.2-17l69.1-57.3c2.7-2.3 6.2-3.4 9.6-3.4h62.3c14.6 0 20.9 18.7 9 27.3l-60 44.2c-21.2 15.7-35.3 26-46.8 33.8-8.7 5.9-9 18.7-.3 25 12.2 8.7 27.7 20.3 48.3 36.8l70.6 55.3c11.5 8.8 5.2 27-9.3 26.9zm-302.6 0h-48.8c-8.3 0-14.9-6.7-14.9-14.9V121.9c0-8.3 6.7-14.9 14.9-14.9h48.8c8.3 0 14.9 6.7 14.9 14.9v219.6c.1 8.3-6.6 14.9-14.9 14.9zm-74.2-49.2v34.3c0 8.3-6.7 14.9-14.9 14.9H971.3c-8.3 0-14.9-6.7-14.9-14.9V121.9c0-8.3 6.7-14.9 14.9-14.9h48.8c8.3 0 14.9 6.7 14.9 14.9v155.5c0 8.3 6.7 14.9 14.9 14.9h116c8.3 0 15 6.7 15 14.9zm-237.4-.2.5 34.3c.1 8.3-6.6 15.1-14.9 15.1H714.4c-8.3 0-14.9-6.7-14.9-14.9V121.9c0-8.3 6.7-14.9 14.9-14.9h213.9c8.3 0 14.9 6.7 14.9 15v35c-.2 8.2-6.8 14.9-15 14.9H793.5c-8.3 0-14.9 6.7-14.9 14.9 0 8.3 6.7 14.9 14.9 14.9h134.9c8.3 0 14.9 6.7 14.9 14.9v26.9c0 8.3-6.7 14.9-14.9 14.9H793.5c-8.3 0-14.9 6.7-14.9 14.9v4.1c0 8.3 6.7 14.9 14.9 14.9h135.1c8.1 0 14.8 6.5 14.9 14.7zm-273 49.4h-48.4c-8.3 0-14.9-6.7-14.9-14.9v-66.4c0-8.3-6.7-14.9-14.9-14.9H470.9c-8.3 0-14.9 6.7-14.9 14.9v66.4c0 8.3-6.7 14.9-14.9 14.9h-49.2c-8.3 0-14.9-6.7-14.9-14.9V121.9c0-8.3 6.7-14.9 14.9-14.9H441c8.3 0 14.9 6.7 14.9 14.9v58.5c0 8.3 6.7 14.9 14.9 14.9h121.4c8.3 0 14.9-6.7 14.9-14.9v-58.5c0-8.3 6.7-14.9 14.9-14.9h48.4c8.3 0 14.9 6.7 14.9 14.9v219.6c.1 8.3-6.5 14.9-14.8 14.9z" class="st0"/><path id="Icon_1_" d="M174.3 435.4c-4 0-7.3-3.3-7.3-7.3l.1-77-40.5 36.8c-2.7 2.5-6.9 2.5-9.7.1-2.8-2.5-3.3-6.6-1.1-9.6l36.5-52.7L79.1 362c-3.4 1.6-7.4.5-9.4-2.6-2-3.2-1.2-7.3 1.7-9.6l76.3-59.5-117.6 18.3c-3.7.6-7.2-1.8-8.2-5.4-.9-3.6 1.1-7.4 4.7-8.6l117.5-41-99.9-16.3c-3.8-.6-6.4-4-6.1-7.8.3-3.8 3.4-6.7 7.2-6.7h170.3l-41.1-6.7c-3.3-.6-5.7-3.2-6.1-6.6-.2-3.3 1.7-6.4 4.8-7.5l68.8-23.9-66 10.2c-3.3.5-6.5-1.2-7.8-4.3-1.3-3-.4-6.6 2.2-8.6L212 143l-34 16.9c-3 1.5-6.6.7-8.7-1.7-2.1-2.5-2.4-6.2-.5-8.9L185 126l-5.3 4.8c-2.1 2-5.2 2.5-7.8 1.2-2.6-1.1-4.4-3.8-4.4-6.7l.1-93.5c0-4 3.3-7.3 7.3-7.3s7.3 3.3 7.3 7.3l-.1 77L222.6 72c2.7-2.5 6.9-2.5 9.7-.1s3.3 6.6 1.1 9.6L197 134.2l73.2-36.3c3.4-1.6 7.4-.5 9.4 2.6s1.2 7.3-1.6 9.6l-76.4 59.5 117.7-18.2c3.7-.6 7.2 1.8 8.2 5.4.9 3.6-1.1 7.4-4.7 8.6l-117.5 40.9 99.9 16.3c3.8.6 6.4 4 6.1 7.8-.2 2.9-2.1 5.3-4.8 6.2-.9.4-1.9.6-3 .6H134.7l40 6.6c3.3.6 5.7 3.2 6.1 6.6.3 3.3-1.7 6.4-4.8 7.5L106.9 282l66.4-10.3c3.3-.5 6.5 1.2 7.8 4.3 1.3 3 .4 6.6-2.2 8.6l-41.5 32.3 33.8-16.8c3-1.5 6.6-.7 8.7 1.7 2.1 2.5 2.4 6.2.5 8.9l-16.3 23.5 5.4-4.9c2.1-2 5.2-2.5 7.8-1.2 2.6 1.1 4.4 3.8 4.4 6.7l-.1 93.5c0 3.9-3.3 7.1-7.3 7.1z" class="st0"/></svg>