<svg xmlns="http://www.w3.org/2000/svg" width="300" height="140" fill="none"><g clip-path="url(#a)"><path fill="#003087" d="M88.64 77.021 76.43 55.233c-2.664-4.537-9.227-4.578-11.812.204L51.812 78.084c-2.386 4.17.557 9.361 5.37 9.361h25.731c4.813.04 8.432-5.355 5.727-10.424Z"/><path fill="#1877F2" d="m71.022 78.737-.756-1.349C69.55 76.121 68 73.423 68 73.423L57.66 54.946c-2.665-4.088-9.029-4.456-11.693.736l-12.051 21.42c-2.506 4.497.477 10.342 5.886 10.383h42.953c-6.602.041-8.71-3.515-11.732-8.748Z"/><path fill="url(#b)" d="m71.022 78.656-.756-1.349A933.082 933.082 0 0 0 68 73.342l-6.681-12.1-9.585 16.842c-2.386 4.17.557 9.361 5.369 9.361h25.652c-6.642-.04-8.71-3.515-11.733-8.789Z"/><path fill="#fff" d="M247.596 61.178c1.79-1.717 4.932-2.535 9.505-2.535H267.8v-6.254h-12.647c-3.023 0-5.568.327-7.557.98-1.949.655-3.659 1.677-5.13 3.108-1.552 1.553-2.784 3.474-3.659 5.763-.875 2.33-1.313 4.865-1.313 7.522 0 2.534.438 4.987 1.313 7.235.875 2.249 2.107 4.21 3.659 5.764 1.431 1.43 3.142 2.453 5.051 3.107 1.948.654 4.533.981 7.636.981H267.8v-6.173h-10.699c-2.426 0-4.096-.081-5.051-.286-.994-.204-1.908-.531-2.664-1.022-1.511-.98-2.665-2.248-3.421-3.842-.715-1.554-1.073-3.516-1.073-5.805 0-3.924.915-6.827 2.704-8.544ZM154.491 86.93h29.829v-6.05h-22.551v-8.624h19.687v-5.723h-19.687V58.52h22.551v-6.09h-29.829v34.5Zm37.266-34.5 13.96 17.25-13.96 17.25h9.028l11.017-13.652v-7.154L200.785 52.43h-9.028Zm33.886 0-11.017 13.694v7.154l11.017 13.653h9.028l-14-17.25 14-17.251h-9.028ZM125.26 69.435 111.857 52.43h-6.92v34.5h7.278V63.917l11.613 14.308h2.824l11.613-14.43V86.93h7.278v-34.5h-6.84L125.26 69.435Z"/></g><defs><linearGradient id="b" x1="48.312" x2="78.216" y1="70.451" y2="81.202" gradientUnits="userSpaceOnUse"><stop stop-color="#003087" stop-opacity="0"/><stop offset="1" stop-color="#003087"/></linearGradient><clipPath id="a"><path fill="#fff" d="M33 51h235v37H33z"/></clipPath></defs></svg>