<svg xmlns="http://www.w3.org/2000/svg" width="1180" height="182" fill="none"><g fill="#fff" clip-path="url(#a)"><path d="M975.58 1H844.91c-6.34 0-11.48 5.14-11.48 11.48v157.36c0 6.34 5.14 11.48 11.48 11.48h130.36c3.04 0 5.97-1.21 8.12-3.36 2.15-2.15 3.36-5.07 3.36-8.12v-51.61h-22.96v40.13H856.4V23.97h107.7v18.3h-77.91c-6.34 0-11.48 5.14-11.48 11.48v74.78c0 6.34 5.14 11.48 11.48 11.48h59.3v-22.97h-47.82V65.22h77.91c6.34 0 11.48-5.14 11.48-11.48V12.48c0-6.34-5.14-11.48-11.48-11.48zM157.86.99H0V24.1h146.3v59.71H52.97c-6.38 0-11.56 5.17-11.56 11.56v45.68h23.12v-34.12h93.33c6.38 0 11.56-5.17 11.56-11.56V12.54c0-6.38-5.17-11.56-11.56-11.56v.01z"/><path d="M82.82 158.34h-59.7V65.51h104.89V42.4H11.56C5.18 42.4 0 47.57 0 53.96v115.95c0 6.38 5.17 11.56 11.56 11.56h82.82c6.38 0 11.56-5.17 11.56-11.56v-44.68H82.82v33.13-.02zm710.81 23.12h-41.41c-6.38 0-11.56-5.17-11.56-11.56V12.54c0-6.38 5.17-11.56 11.56-11.56h53.03V24.1h-41.47v134.24h18.3V42.4h23.11v127.5c0 6.38-5.17 11.56-11.56 11.56zm-544.03 0h-41.41c-6.38 0-11.56-5.17-11.56-11.56V12.54c0-6.38 5.17-11.56 11.56-11.56h53.03V24.1h-41.47v134.24h18.3V42.4h23.11v127.5c0 6.38-5.17 11.56-11.56 11.56zM543.18 12.54V169.9c0 6.38-5.17 11.56-11.55 11.56h-51.42v-23.12h39.86V24.1h-60.59l-33.04 77.52a11.556 11.556 0 0 1-21.26 0L372.14 24.1h-60.59v134.24h39.86v23.12h-51.42c-6.38 0-11.55-5.18-11.55-11.56V12.54c0-6.38 5.17-11.55 11.55-11.55h79.78c4.64 0 8.82 2.76 10.64 7.02l25.4 59.6 25.4-59.6c1.82-4.26 6-7.02 10.64-7.02h79.78c6.38 0 11.55 5.17 11.55 11.55z"/><path d="M501.77 53.96v86.08h-21.56V74.3l-31.75 73.4c-1.81 4.26-6 7.02-10.63 7.02h-44.04c-4.63 0-8.82-2.76-10.63-7.02l-31.75-73.4v65.74h-21.56V53.96c0-6.39 5.18-11.56 11.56-11.56h10.74c4.63 0 8.82 2.76 10.63 7.02l35.5 82.19h35.06l35.5-82.19c1.81-4.26 6-7.02 10.63-7.02h10.74c6.38 0 11.56 5.17 11.56 11.56zm189.51 104.38h-96.81V42.4h-23.12v127.5c0 6.38 5.17 11.56 11.56 11.56h119.93c6.38 0 11.56-5.17 11.56-11.56v-52.44h-23.12v40.88z"/><path d="M612.76 128.49c0 6.38 5.17 11.56 11.56 11.56h48.66v-23.11h-37.11V12.54c0-6.38-5.17-11.56-11.56-11.56h-52.45V24.1h40.89v104.39h.01zM1168.12 1h-141.4c-6.34 0-11.49 5.14-11.49 11.48v157.36c0 6.34 5.15 11.48 11.49 11.48h141.4c6.34 0 11.48-5.14 11.48-11.48V12.48c0-6.34-5.14-11.48-11.48-11.48zm-11.48 157.36H1038.2V23.97h118.44v134.39z"/><path d="M1127.25 42.27h-59.66c-6.21 0-11.25 5.04-11.25 11.25v50.78h22.51V64.77H1116v52.79h-37.15V99.28h-22.51v29.53c0 6.21 5.04 11.25 11.25 11.25h59.66c6.22 0 11.26-5.04 11.26-11.25V53.52c0-6.21-5.04-11.25-11.26-11.25z"/></g><defs><clipPath id="a"><path fill="#fff" d="M0 0h1179.6v181.46H0z"/></clipPath></defs></svg>