<svg xmlns="http://www.w3.org/2000/svg" width="1265" height="296" fill="none"><g clip-path="url(#a)"><path fill="#fff" d="M341 97c8.4-.6 16.8-.6 25.4 0l1.8 17h1.2c3.2-13.4 16.2-19 34.4-19 .8 6.8.8 18 0 24.8-22.6 0-28.8 4.6-34.2 19V201c-7 1-21.8 1-28.6 0V97zm168.4 60.8c-13.4 1-44.2 1.2-61.4.2v5c0 14.2 8.2 16.8 25.4 16.8 11.8 0 20.2-1 31.4-3.2.8 6.8.8 16.4 0 23.2-14 2.4-25.2 3.6-38.4 3.6-28.8 0-47-8.6-47-34v-40c0-26.6 19.2-34.4 45.8-34.4 26.4 0 44.2 11.2 44.2 39.8v23zm-28-24.2c0-13.6-7.8-15.2-16.6-15.2S448 120 448 133.6v7.8l15.4-1h18v-6.8zm123.2 43c0 19.4-15.2 26.8-40 26.8-10.6 0-22.8-.8-34.2-2.8-1-7.2-1-15.4 0-22.4 10.8 1.8 21.6 2.4 30 2.4 8 0 15.6-.6 15.6-7.4v-3.8c0-5.8-4-6.8-10.8-8.6l-18-5.2c-11.4-3.2-17.6-10.4-17.6-23.6v-11c0-18.6 16-26 41.4-26 10 0 20.4.8 32 3.2 1 7.2 1 15.2 0 22.2-12.2-2.2-20-2.8-28.8-2.8-8.6 0-16 .6-16 7.4v3.8c0 5 4.6 6.8 10.8 8.6l16.8 4.6c12.4 3.4 18.8 9.6 18.8 24.8v9.8zm111.2-18.8c-13.4 1-44.2 1.2-61.4.2v5c0 14.2 8.2 16.8 25.4 16.8 11.8 0 20.2-1 31.4-3.2.8 6.8.8 16.4 0 23.2-14 2.4-25.2 3.6-38.4 3.6-28.8 0-47-8.6-47-34v-40c0-26.6 19.2-34.4 45.8-34.4 26.4 0 44.2 11.2 44.2 39.8v23zm-28-24.2c0-13.6-7.8-15.2-16.6-15.2s-16.8 1.6-16.8 15.2v7.8l15.4-1h18v-6.8zm53-36.6c8.4-.6 16.8-.6 25.4 0l1.8 17h1.2c3.2-13.4 16.2-19 34.4-19 .8 6.8.8 18 0 24.8-22.6 0-28.8 4.6-34.2 19V201c-7 1-21.8 1-28.6 0V97zm82 .8c7-1 21.8-1 28.6 0l21.8 77 21.6-77c6.8-1 21-1 27.8 0L890.8 201c-8.8 1-27.2 1-36 0l-32-103.2zm210.4 72.2c0 24.8-18.8 33.4-46.8 33.4-28 0-46.8-8.6-46.8-33.4v-41.2c0-25.8 18.8-33.8 46.8-33.8 28 0 46.8 8 46.8 33.8V170zm-28.6-35.4c0-13.8-8.4-15.4-18.2-15.4-10 0-18.2 1.6-18.2 15.4v29.2c0 13.6 8.2 15.2 18.2 15.2 9.8 0 18.2-1.6 18.2-15.2v-29.2zm84.4-53c-7 1-22.8 1-30 0l-.4-22.8c7.2-1 23.8-1 31 0l-.6 22.8zm-29.2 16.2c6.8-1 21.6-1 28.6 0V201c-7 1-21.8 1-28.6 0V97.8zm57.8-.8c8.4-.6 16.8-.6 25.4 0l1.8 17h1.2c3.2-13.4 16.2-19 34.4-19 .8 6.8.8 18 0 24.8-22.6 0-28.8 4.6-34.2 19V201c-7 1-21.8 1-28.6 0V97z"/><path fill="#80D8FF" d="m253.2 201.4-93.3-53.8V39.9l93.3 53.9v107.6z"/><path fill="#7ACFFF" d="m66.6 201.4 93.3-53.8V39.9L66.6 93.8v107.6z"/><path fill="url(#b)" d="m159.9 201.4 93.3-53.8-93.3-53.8-93.3 53.8 93.3 53.8z"/><path fill="#E4F0FE" d="m159.9 255.3-93.3-53.9V93.8l93.3 53.8v107.7z" opacity=".3"/><path fill="url(#c)" d="m66.6 201.4 93.3 53.9v-53.9l-93.3-53.8v53.8z"/><path fill="#D0E6FF" d="m159.9 255.3 93.3-53.9V93.8l-93.3 53.8v107.7z" opacity=".3"/><path fill="url(#d)" d="m253.2 201.4-93.3 53.9v-53.9l93.3-53.8v53.8z"/><path fill="#fff" d="m159.9 147.6 93.3-53.8-93.3-53.9-93.3 53.9 93.3 53.8z" opacity=".3"/></g><defs><linearGradient id="b" x1="70.121" x2="252.161" y1="167.673" y2="126.983" gradientUnits="userSpaceOnUse"><stop stop-color="#C132CE"/><stop offset="1" stop-color="#425AFA"/></linearGradient><linearGradient id="c" x1="102.493" x2="129.343" y1="165.619" y2="254.929" gradientUnits="userSpaceOnUse"><stop stop-color="#425AFA"/><stop offset=".16" stop-color="#5A52F2"/><stop offset=".55" stop-color="#9241DE"/><stop offset=".84" stop-color="#B436D3"/><stop offset="1" stop-color="#C132CE"/></linearGradient><linearGradient id="d" x1="176.41" x2="235.9" y1="238.4" y2="165.42" gradientUnits="userSpaceOnUse"><stop stop-color="#C132CE"/><stop offset=".1" stop-color="#AB39D6"/><stop offset=".28" stop-color="#8545E3"/><stop offset=".47" stop-color="#684EED"/><stop offset=".65" stop-color="#5355F4"/><stop offset=".83" stop-color="#4659F9"/><stop offset="1" stop-color="#425AFA"/></linearGradient><clipPath id="a"><path fill="#fff" d="M0 0h1264.8v295.2H0z"/></clipPath></defs></svg>