<svg xmlns="http://www.w3.org/2000/svg" xmlns:xlink="http://www.w3.org/1999/xlink" xml:space="preserve" viewBox="0 0 1738.4 325.8"><path fill="#fff" d="M583.4 263.4c38.6 0 65.8-22 65.8-55.7.3-29.1-17.2-45.9-46.4-56.5l-20-7.3c-20.3-7.3-30-13.6-30-27.7s14.4-22.3 31.1-22.3c15.5 0 27.5 6.2 37.5 17.9l22.5-21.5c-14.4-17.1-35.2-26.4-59.7-26.4-36.6 0-64.1 20.7-64.1 54.4 0 26.4 15.3 43.2 46.6 54.4l21.7 7.6c18.9 6.8 28 15.5 28 29.4 0 14.4-13.3 23.9-31.9 23.9-19.2 0-35.5-9.2-45.8-24.7l-25.5 19.8c11.6 20.8 38.5 34.7 70.2 34.7zm154.2-.6c29.2 0 50.8-12 63.3-31.5L777.5 215c-7.5 12-20 20.7-39.7 20.7-23.3 0-41.4-14.4-42.7-37h109.1c.3-4.3.3-6.8.3-9.8 0-43.7-30.2-67.4-66.9-67.4-42.2 0-72.4 30.7-72.4 70.7-.1 41.5 30.2 70.6 72.4 70.6zm-41.1-85.9c4.4-20.1 21.9-30.2 40-30.2 17.8 0 33.9 10.6 37.2 30.2h-77.2zm266.6 140V124.2h-30.5v18.2c-7.8-10.9-24.4-20.9-44.4-20.9-38 0-66.9 31.8-66.9 70.7s28.9 70.7 66.9 70.7c20 0 36.6-10.1 44.4-20.9v75h30.5zm-69.4-81.3c-24.4 0-41.4-19-41.4-43.5s16.9-43.5 41.4-43.5c24.4 0 41.4 19 41.4 43.5-.1 24.5-17 43.5-41.4 43.5zm148.4 27.2c17.8 0 32.5-7.3 40.5-21.2v18.5h30.5V124.2h-30.5v66.9c0 29.4-13.9 44.6-33.9 44.6-17.8 0-27.8-13.3-27.8-35.1v-76.4h-30.5v81.3c0 34.8 19.7 57.3 51.7 57.3zm166.5 0c29.1 0 50.8-12 63.3-31.5l-23.3-16.3c-7.5 12-20 20.7-39.7 20.7-23.3 0-41.3-14.4-42.7-37h109.1c.3-4.3.3-6.8.3-9.8 0-43.7-30.2-67.4-66.9-67.4-42.2 0-72.5 30.7-72.5 70.7 0 41.5 30.2 70.6 72.4 70.6zm-41.1-85.9c4.4-20.1 21.9-30.2 40-30.2 17.8 0 33.9 10.6 37.2 30.2h-77.2zm131.1 83.2h30.5v-66.9c0-29.4 15.5-44.6 35.8-44.6 17.8 0 28.9 12.8 28.9 34.5V260h30.5v-81.8c0-34.5-20.8-56.8-53-56.8-18 0-33.6 7.3-42.2 21.2v-18.5h-30.5v136zm219.7 2.7c28.9 0 52.7-14.7 64.7-37.5l-26.7-14.1c-6.7 13.9-20.3 23.9-38 23.9-24.7 0-42.2-18.8-42.2-42.9s17.5-42.9 42.2-42.9c17.8 0 31.4 10.1 38 23.9L1583 159c-11.9-22.8-35.8-37.5-64.7-37.5-41.6 0-73.3 30.4-73.3 70.7s31.7 70.6 73.3 70.6zm147 0c29.2 0 50.8-12 63.3-31.5l-23.3-16.3c-7.5 12-20 20.7-39.7 20.7-23.3 0-41.3-14.4-42.8-37h109.1c.3-4.3.3-6.8.3-9.8 0-43.7-30.2-67.4-66.9-67.4-42.2 0-72.4 30.7-72.4 70.7-.1 41.5 30.2 70.6 72.4 70.6zm-41.1-85.9c4.4-20.1 21.9-30.2 40-30.2 17.8 0 33.9 10.6 37.2 30.2h-77.2z"/><defs><path id="a" d="M21.2 3.9h396v317.7h-396z"/></defs><clipPath id="b"><use xlink:href="#a" overflow="visible"/></clipPath><g clip-path="url(#b)"><path fill="#111" d="M21.2 71.4v182.7c0 37.3 30.1 67.5 67.3 67.5h261.4c37.2 0 67.3-30.2 67.3-67.5V71.4c0-37.3-30.1-67.5-67.3-67.5H88.5c-37.2 0-67.3 30.2-67.3 67.5z"/><linearGradient id="c" x1="219.181" x2="219.181" y1="323.888" y2="5.888" gradientTransform="matrix(1 0 0 -1 0 327.777)" gradientUnits="userSpaceOnUse"><stop offset="0" stop-color="#1d273d"/><stop offset="1" stop-color="#0d0f13"/></linearGradient><path fill="url(#c)" d="M21.2 71.4v182.7c0 37.3 30.1 67.5 67.3 67.5h261.4c37.2 0 67.3-30.2 67.3-67.5V71.4c0-37.3-30.1-67.5-67.3-67.5H88.5c-37.2 0-67.3 30.2-67.3 67.5z"/><linearGradient id="d" x1="83.09" x2="116.348" y1="243.587" y2="245.287" gradientTransform="matrix(1 0 0 -1 0 327.777)" gradientUnits="userSpaceOnUse"><stop offset="0" stop-color="#2447ff"/><stop offset="1" stop-color="#6980fa"/></linearGradient><path fill="url(#d)" d="M120.2 83.3c0-11-8.9-19.9-19.8-19.9s-19.8 8.9-19.8 19.9c0 11 8.9 19.9 19.8 19.9s19.8-8.9 19.8-19.9z"/><linearGradient id="e" x1="86.995" x2="113.495" y1="71.618" y2="99.618" gradientTransform="matrix(1 0 0 -1 0 327.777)" gradientUnits="userSpaceOnUse"><stop offset="0" stop-color="#bc3ee6"/><stop offset="1" stop-color="#d972f1"/><stop offset="1" stop-color="#d972f1"/></linearGradient><path fill="url(#e)" d="M120.2 242c0-11-8.9-19.9-19.8-19.9S80.6 231 80.6 242c0 11 8.9 19.9 19.8 19.9s19.8-8.9 19.8-19.9z"/><linearGradient id="f" x1="325.86" x2="350.36" y1="152.19" y2="178.19" gradientTransform="matrix(1 0 0 -1 0 327.777)" gradientUnits="userSpaceOnUse"><stop offset="0" stop-color="#29bdff"/><stop offset="1" stop-color="#96e7fb"/></linearGradient><path fill="url(#f)" d="M357.8 162.7c0-11-8.9-19.9-19.8-19.9s-19.8 8.9-19.8 19.9c0 11 8.9 19.9 19.8 19.9s19.8-8.9 19.8-19.9z"/><linearGradient id="g" x1="320.463" x2="354.85" y1="164.214" y2="165.861" gradientTransform="matrix(1 0 0 -1 0 327.777)" gradientUnits="userSpaceOnUse"><stop offset="0" stop-color="#23bbff"/><stop offset="1" stop-color="#85e7ff"/></linearGradient><path fill="url(#g)" d="M357.8 162.7c0-11-8.9-19.9-19.8-19.9s-19.8 8.9-19.8 19.9c0 11 8.9 19.9 19.8 19.9s19.8-8.9 19.8-19.9z"/><linearGradient id="h" x1="175.749" x2="338.749" y1="224.604" y2="263.604" gradientTransform="matrix(1 0 0 -1 0 327.777)" gradientUnits="userSpaceOnUse"><stop offset="0" stop-color="#23bbff"/><stop offset="1" stop-color="#85e7ff"/></linearGradient><path fill="url(#h)" d="M338 63.5H179.6c-10.9 0-19.8 8.9-19.8 19.9 0 11 8.9 19.9 19.8 19.9H338c10.9 0 19.8-8.9 19.8-19.9 0-11.1-8.9-19.9-19.8-19.9z"/><linearGradient id="i" x1="177.416" x2="333.916" y1="64.966" y2="104.966" gradientTransform="matrix(1 0 0 -1 0 327.777)" gradientUnits="userSpaceOnUse"><stop offset="0" stop-color="#2447ff"/><stop offset="1" stop-color="#6980fa"/></linearGradient><path fill="url(#i)" d="M338 222.2H179.6c-10.9 0-19.8 8.9-19.8 19.9 0 11 8.9 19.9 19.8 19.9H338c10.9 0 19.8-8.9 19.8-19.9 0-11.1-8.9-19.9-19.8-19.9z"/><linearGradient id="j" x1="106.983" x2="256.483" y1="145.629" y2="185.629" gradientTransform="matrix(1 0 0 -1 0 327.777)" gradientUnits="userSpaceOnUse"><stop offset="0" stop-color="#6634ff"/><stop offset="1" stop-color="#9c6dff"/></linearGradient><path fill="url(#j)" d="M258.8 142.9H100.4c-10.9 0-19.8 8.9-19.8 19.9 0 11 8.9 19.9 19.8 19.9h158.4c10.9 0 19.8-8.9 19.8-19.9 0-11-8.9-19.9-19.8-19.9z"/></g></svg>